<svg width="25" height="26" viewBox="0 0 25 26" fill="none" xmlns="http://www.w3.org/2000/svg">
<g clip-path="url(#clip0_411_8956)">
<path d="M14.5125 4.66667C15.3598 4.66749 16.1722 5.00446 16.7714 5.60362C17.3705 6.20277 17.7075 7.01517 17.7083 7.8625C17.7083 8.13877 17.8181 8.40372 18.0134 8.59907C18.2088 8.79442 18.4737 8.90417 18.75 8.90417C19.0262 8.90417 19.2912 8.79442 19.4866 8.59907C19.6819 8.40372 19.7916 8.13877 19.7916 7.8625V7.79167C19.7916 7.77187 19.7916 7.75417 19.7916 7.73438C19.7569 6.35701 19.1855 5.04769 18.1994 4.08547C17.2132 3.12326 15.8903 2.58425 14.5125 2.58333H13.5416V1.54167C13.5416 1.2654 13.4319 1.00045 13.2365 0.805097C13.0412 0.609747 12.7762 0.5 12.5 0.5C12.2237 0.5 11.9588 0.609747 11.7634 0.805097C11.5681 1.00045 11.4583 1.2654 11.4583 1.54167V2.58333H10.4875C9.23469 2.58467 8.0232 3.03149 7.06956 3.84394C6.11592 4.65638 5.48228 5.78148 5.28191 7.01815C5.08154 8.25482 5.32749 9.52244 5.9758 10.5944C6.62412 11.6664 7.63254 12.4729 8.82081 12.8698L11.4583 13.75V21.3333H10.4875C9.64015 21.3325 8.82775 20.9955 8.2286 20.3964C7.62944 19.7972 7.29247 18.9848 7.29165 18.1375C7.29165 17.8612 7.1819 17.5963 6.98655 17.4009C6.7912 17.2056 6.52625 17.0958 6.24998 17.0958C5.97371 17.0958 5.70876 17.2056 5.51341 17.4009C5.31806 17.5963 5.20831 17.8612 5.20831 18.1375V18.2083C5.20831 18.2281 5.20831 18.2458 5.20831 18.2656C5.24308 19.643 5.81442 20.9523 6.80057 21.9145C7.78672 22.8767 9.10968 23.4157 10.4875 23.4167H11.4583V24.4583C11.4583 24.7346 11.5681 24.9996 11.7634 25.1949C11.9588 25.3903 12.2237 25.5 12.5 25.5C12.7762 25.5 13.0412 25.3903 13.2365 25.1949C13.4319 24.9996 13.5416 24.7346 13.5416 24.4583V23.4167H14.5125C15.7653 23.4153 16.9768 22.9685 17.9304 22.1561C18.884 21.3436 19.5177 20.2185 19.7181 18.9818C19.9184 17.7452 19.6725 16.4776 19.0242 15.4056C18.3758 14.3336 17.3674 13.5271 16.1791 13.1302L13.5416 12.25V4.66667H14.5125ZM15.5229 15.1052C16.2431 15.3449 16.8545 15.8332 17.2476 16.4825C17.6407 17.1319 17.7898 17.9 17.6683 18.6493C17.5467 19.3986 17.1624 20.0801 16.5842 20.5719C16.006 21.0637 15.2716 21.3336 14.5125 21.3333H13.5416V14.4448L15.5229 15.1052ZM11.4583 11.5552L9.47915 10.8948C8.75908 10.6551 8.1478 10.1671 7.7547 9.5179C7.3616 8.86875 7.21234 8.10089 7.33363 7.35174C7.45491 6.6026 7.83883 5.92106 8.41668 5.42911C8.99452 4.93715 9.72858 4.66688 10.4875 4.66667H11.4583V11.5552Z" fill="#A6ADBA"/>
</g>
<defs>
<clipPath id="clip0_411_8956">
<rect width="25" height="25" fill="white" transform="translate(0 0.5)"/>
</clipPath>
</defs>
</svg>
