<svg width="63" height="69" viewBox="0 0 63 69" fill="none" xmlns="http://www.w3.org/2000/svg">
<rect width="46.1437" height="69" rx="6.9" fill="url(#paint0_linear_555_9298)"/>
<g filter="url(#filter0_d_555_9298)">
<path d="M15.5249 27.1687C15.5249 24.787 17.4557 22.8562 19.8374 22.8562H57.7874C60.1691 22.8562 62.0999 24.787 62.0999 27.1687V64.6875C62.0999 67.0692 60.1691 69 57.7874 69H15.5249V27.1687Z" fill="#037C66"/>
</g>
<path d="M47.75 36H45.25V33.5H42.75V36H35.25V33.5H32.75V36H30.25C28.8712 36 27.75 37.1212 27.75 38.5V56C27.75 57.3787 28.8712 58.5 30.25 58.5H47.75C49.1288 58.5 50.25 57.3787 50.25 56V38.5C50.25 37.1212 49.1288 36 47.75 36ZM46.5 54.75H39V47.25H46.5V54.75ZM47.75 42.25H30.25V39.75H47.75V42.25Z" fill="#30B099"/>
<defs>
<filter id="filter0_d_555_9298" x="6.46865" y="13.8" width="55.6312" height="55.2" filterUnits="userSpaceOnUse" color-interpolation-filters="sRGB">
<feFlood flood-opacity="0" result="BackgroundImageFix"/>
<feColorMatrix in="SourceAlpha" type="matrix" values="0 0 0 0 0 0 0 0 0 0 0 0 0 0 0 0 0 0 127 0" result="hardAlpha"/>
<feMorphology radius="3.01875" operator="erode" in="SourceAlpha" result="effect1_dropShadow_555_9298"/>
<feOffset dx="-4.74375" dy="-4.74375"/>
<feGaussianBlur stdDeviation="3.66563"/>
<feComposite in2="hardAlpha" operator="out"/>
<feColorMatrix type="matrix" values="0 0 0 0 0 0 0 0 0 0 0 0 0 0 0 0 0 0 0.17 0"/>
<feBlend mode="normal" in2="BackgroundImageFix" result="effect1_dropShadow_555_9298"/>
<feBlend mode="normal" in="SourceGraphic" in2="effect1_dropShadow_555_9298" result="shape"/>
</filter>
<linearGradient id="paint0_linear_555_9298" x1="0" y1="0" x2="89.6225" y2="43.9228" gradientUnits="userSpaceOnUse">
<stop stop-color="#29AE96"/>
<stop offset="1" stop-color="#5AB8A7"/>
</linearGradient>
</defs>
</svg>
