<svg width="25" height="26" viewBox="0 0 25 26" fill="none" xmlns="http://www.w3.org/2000/svg">
<path d="M22.0703 3.82031H2.92969C1.31426 3.82031 0 5.13457 0 6.75V19.25C0 20.8654 1.31426 22.1797 2.92969 22.1797H22.0703C23.6857 22.1797 25 20.8654 25 19.25V6.75C25 5.13457 23.6857 3.82031 22.0703 3.82031ZM23.0469 19.25C23.0469 19.7885 22.6088 20.2266 22.0703 20.2266H2.92969C2.39121 20.2266 1.95312 19.7885 1.95312 19.25V10.9492H23.0469V19.25ZM23.0469 8.01953H1.95312V6.75C1.95312 6.21152 2.39121 5.77344 2.92969 5.77344H22.0703C22.6088 5.77344 23.0469 6.21152 23.0469 6.75V8.01953Z" fill="white"/>
<path d="M16.2109 12.4141H3.32031V14.3672H16.2109V12.4141Z" fill="white"/>
</svg>
