<svg width="63" height="69" viewBox="0 0 63 69" fill="none" xmlns="http://www.w3.org/2000/svg">
<rect width="46.1437" height="69" rx="6.9" fill="url(#paint0_linear_554_9292)"/>
<g filter="url(#filter0_d_554_9292)">
<path d="M15.5249 27.1687C15.5249 24.787 17.4557 22.8562 19.8374 22.8562H57.7874C60.1691 22.8562 62.0999 24.787 62.0999 27.1687V64.6875C62.0999 67.0692 60.1691 69 57.7874 69H15.5249V27.1687Z" fill="#037C66"/>
</g>
<path d="M42.75 36.625H35.25L32.4727 32.4578C32.0566 31.8344 32.502 31 33.252 31H44.748C45.498 31 45.9434 31.8344 45.5273 32.4578L42.75 36.625ZM35.25 38.5H42.75C42.9727 38.6465 43.2246 38.8105 43.459 38.9922C46.834 41.1191 54 45.7012 54 55.375C54 58.4805 51.4805 61 48.375 61H29.625C26.5184 61 24 58.4805 24 55.375C24 45.7012 31.166 41.1191 34.4883 38.9922C34.7754 38.8105 35.0273 38.6465 35.25 38.5V38.5ZM40.1777 44.125C40.1777 43.4746 39.6504 42.9473 38.9473 42.9473C38.3496 42.9473 37.8223 43.4746 37.8223 44.125V44.4766C37.4941 44.5469 37.1309 44.6465 36.8906 44.7754C36.0176 45.1738 35.2559 45.9121 35.0684 46.9844C34.9629 47.582 35.0215 48.1621 35.2676 48.6836C35.5137 49.1992 35.8945 49.5625 36.2813 49.8262C36.9609 50.2891 37.8574 50.5586 38.543 50.7637L38.6719 50.7988C39.4922 51.0508 40.043 51.2324 40.3887 51.4844C40.5352 51.5898 40.5879 51.6719 40.6055 51.7246C40.6289 51.7715 40.6641 51.877 40.623 52.1113C40.5879 52.3164 40.4766 52.4922 40.1543 52.627C39.7969 52.7793 39.2168 52.8555 38.4668 52.7383C38.1152 52.6797 37.4883 52.4688 36.9316 52.2813C36.8027 52.2344 36.6738 52.1934 36.5566 52.1523C35.9414 51.9473 35.2793 52.2813 35.0742 52.8965C34.8691 53.5117 35.2031 54.1738 35.8184 54.3262C35.8887 54.4023 35.9766 54.4316 36.0762 54.4668C36.4863 54.625 37.2656 54.8711 37.8223 55V55.375C37.8223 56.0254 38.3496 56.5527 38.9473 56.5527C39.6504 56.5527 40.1777 56.0254 40.1777 55.375V55.0527C40.4883 54.9941 40.793 54.8535 41.0742 54.7832C42 54.3906 42.7383 53.6289 42.9316 52.5156C43.0371 51.9063 42.9902 51.3203 42.7559 50.7871C42.5273 50.2598 42.1582 49.873 41.7656 49.5918C41.0566 49.0703 40.1074 48.7891 39.3984 48.5723L39.2988 48.5605C38.5195 48.3086 37.957 48.1328 37.5996 47.8867C37.4473 47.7813 37.4004 47.7109 37.3887 47.6816C37.377 47.6582 37.3418 47.5879 37.377 47.3887C37.4004 47.2715 37.4883 47.0781 37.8574 46.9141C38.1855 46.7441 38.8184 46.6504 39.5332 46.709C39.791 46.8027 40.582 46.9551 40.8105 47.0137C41.4316 47.1836 42.0762 46.8086 42.2402 46.1816C42.4102 45.5605 42.0352 44.916 41.4082 44.752C41.1504 44.6816 40.5645 44.5645 40.1777 44.4941V44.125V44.125Z" fill="#33B099"/>
<defs>
<filter id="filter0_d_554_9292" x="6.46865" y="13.8" width="55.6312" height="55.2" filterUnits="userSpaceOnUse" color-interpolation-filters="sRGB">
<feFlood flood-opacity="0" result="BackgroundImageFix"/>
<feColorMatrix in="SourceAlpha" type="matrix" values="0 0 0 0 0 0 0 0 0 0 0 0 0 0 0 0 0 0 127 0" result="hardAlpha"/>
<feMorphology radius="3.01875" operator="erode" in="SourceAlpha" result="effect1_dropShadow_554_9292"/>
<feOffset dx="-4.74375" dy="-4.74375"/>
<feGaussianBlur stdDeviation="3.66563"/>
<feComposite in2="hardAlpha" operator="out"/>
<feColorMatrix type="matrix" values="0 0 0 0 0 0 0 0 0 0 0 0 0 0 0 0 0 0 0.17 0"/>
<feBlend mode="normal" in2="BackgroundImageFix" result="effect1_dropShadow_554_9292"/>
<feBlend mode="normal" in="SourceGraphic" in2="effect1_dropShadow_554_9292" result="shape"/>
</filter>
<linearGradient id="paint0_linear_554_9292" x1="0" y1="0" x2="89.6225" y2="43.9228" gradientUnits="userSpaceOnUse">
<stop stop-color="#29AE96"/>
<stop offset="1" stop-color="#5AB8A7"/>
</linearGradient>
</defs>
</svg>
