<svg width="176" height="41" viewBox="0 0 176 41" fill="none" xmlns="http://www.w3.org/2000/svg">
<path d="M45.5063 32.8086V18.7882H43.0554V14.9316H45.5063V12.8412C45.5063 10.6787 46.0469 9.14085 47.1282 8.22778C48.2335 7.31471 49.7232 6.85818 51.5974 6.85818H53.5797V10.7868H52.3183C51.5253 10.7868 50.9607 10.943 50.6243 11.2553C50.2879 11.5677 50.1197 12.0963 50.1197 12.8412V14.9316H61.6532V32.8086H57.0398V18.7882H50.1197V32.8086H45.5063ZM59.3825 12.3726C58.5416 12.3726 57.8447 12.1203 57.2921 11.6158C56.7635 11.1112 56.4992 10.4744 56.4992 9.70551C56.4992 8.93661 56.7635 8.31188 57.2921 7.83132C57.8447 7.32673 58.5416 7.07443 59.3825 7.07443C60.2235 7.07443 60.9083 7.32673 61.4369 7.83132C61.9896 8.31188 62.2659 8.93661 62.2659 9.70551C62.2659 10.4744 61.9896 11.1112 61.4369 11.6158C60.9083 12.1203 60.2235 12.3726 59.3825 12.3726ZM66.535 32.8086V14.9316H70.6077L70.9681 17.9592C71.5208 16.9019 72.3137 16.061 73.3469 15.4362C74.4042 14.8115 75.6416 14.4991 77.0593 14.4991C79.2699 14.4991 80.9879 15.1959 82.2133 16.5896C83.4388 17.9832 84.0515 20.0256 84.0515 22.7168V32.8086H79.4381V23.1493C79.4381 21.6115 79.1257 20.4341 78.501 19.6171C77.8762 18.8002 76.9031 18.3917 75.5816 18.3917C74.284 18.3917 73.2148 18.8482 72.3738 19.7613C71.5568 20.6744 71.1484 21.9479 71.1484 23.5818V32.8086H66.535ZM94.6262 33.2411C93.0884 33.2411 91.8269 33.0008 90.8418 32.5203C89.8566 32.0157 89.1238 31.3549 88.6432 30.5379C88.1626 29.721 87.9224 28.8199 87.9224 27.8348C87.9224 26.1768 88.5711 24.8312 89.8686 23.798C91.1662 22.7648 93.1125 22.2482 95.7075 22.2482H100.249V21.8157C100.249 20.5903 99.9004 19.6892 99.2036 19.1125C98.5068 18.5359 97.6418 18.2475 96.6085 18.2475C95.6714 18.2475 94.8545 18.4758 94.1577 18.9323C93.4609 19.3648 93.0284 20.0136 92.8602 20.8786H88.3549C88.475 19.5811 88.9075 18.4518 89.6524 17.4906C90.4213 16.5295 91.4065 15.7967 92.6079 15.2921C93.8093 14.7634 95.1548 14.4991 96.6446 14.4991C99.1916 14.4991 101.198 15.1359 102.664 16.4094C104.129 17.6829 104.862 19.485 104.862 21.8157V32.8086H100.934L100.501 29.9252C99.9725 30.8863 99.2276 31.6793 98.2665 32.304C97.3294 32.9287 96.116 33.2411 94.6262 33.2411ZM95.6714 29.6369C96.993 29.6369 98.0142 29.2044 98.735 28.3394C99.4799 27.4743 99.9485 26.4051 100.141 25.1316H96.2121C94.9866 25.1316 94.1096 25.3599 93.581 25.8164C93.0524 26.2489 92.7881 26.7895 92.7881 27.4383C92.7881 28.1351 93.0524 28.6757 93.581 29.0602C94.1096 29.4447 94.8064 29.6369 95.6714 29.6369ZM109.265 32.8086V14.9316H113.337L113.698 17.9592C114.251 16.9019 115.043 16.061 116.077 15.4362C117.134 14.8115 118.371 14.4991 119.789 14.4991C122 14.4991 123.718 15.1959 124.943 16.5896C126.169 17.9832 126.781 20.0256 126.781 22.7168V32.8086H122.168V23.1493C122.168 21.6115 121.855 20.4341 121.231 19.6171C120.606 18.8002 119.633 18.3917 118.311 18.3917C117.014 18.3917 115.945 18.8482 115.104 19.7613C114.287 20.6744 113.878 21.9479 113.878 23.5818V32.8086H109.265ZM139.951 33.2411C138.125 33.2411 136.515 32.8446 135.121 32.0517C133.728 31.2588 132.622 30.1535 131.805 28.7358C131.013 27.3182 130.616 25.6963 130.616 23.8701C130.616 22.044 131.013 20.4221 131.805 19.0044C132.622 17.5868 133.728 16.4815 135.121 15.6885C136.515 14.8956 138.125 14.4991 139.951 14.4991C142.234 14.4991 144.156 15.0998 145.718 16.3012C147.28 17.4786 148.277 19.1125 148.709 21.203H143.844C143.603 20.338 143.123 19.6652 142.402 19.1846C141.705 18.68 140.876 18.4277 139.915 18.4277C138.641 18.4277 137.56 18.9083 136.671 19.8694C135.782 20.8306 135.338 22.1641 135.338 23.8701C135.338 25.5761 135.782 26.9097 136.671 27.8708C137.56 28.8319 138.641 29.3125 139.915 29.3125C140.876 29.3125 141.705 29.0722 142.402 28.5917C143.123 28.1111 143.603 27.4263 143.844 26.5372H148.709C148.277 28.5556 147.28 30.1775 145.718 31.4029C144.156 32.6284 142.234 33.2411 139.951 33.2411ZM161.49 33.2411C159.688 33.2411 158.09 32.8567 156.697 32.0877C155.303 31.3188 154.21 30.2376 153.417 28.8439C152.624 27.4503 152.227 25.8404 152.227 24.0143C152.227 22.1641 152.612 20.5182 153.381 19.0765C154.174 17.6348 155.255 16.5175 156.625 15.7246C158.018 14.9076 159.652 14.4991 161.526 14.4991C163.28 14.4991 164.83 14.8836 166.176 15.6525C167.521 16.4214 168.567 17.4786 169.311 18.8242C170.08 20.1458 170.465 21.6235 170.465 23.2574C170.465 23.5217 170.453 23.798 170.429 24.0864C170.429 24.3747 170.417 24.6751 170.393 24.9874H156.805C156.901 26.3811 157.381 27.4743 158.246 28.2673C159.135 29.0602 160.205 29.4567 161.454 29.4567C162.391 29.4567 163.172 29.2524 163.797 28.8439C164.446 28.4114 164.926 27.8588 165.239 27.186H169.924C169.588 28.3153 169.023 29.3485 168.23 30.2856C167.461 31.1987 166.5 31.9196 165.347 32.4482C164.217 32.9768 162.932 33.2411 161.49 33.2411ZM161.526 18.2475C160.397 18.2475 159.4 18.5719 158.535 19.2207C157.67 19.8454 157.117 20.8065 156.877 22.104H165.779C165.707 20.9267 165.275 19.9896 164.482 19.2928C163.689 18.5959 162.704 18.2475 161.526 18.2475Z" fill="#FDFDFD"/>
<path d="M45.5063 32.8086H44.9254V33.3895H45.5063V32.8086ZM45.5063 18.7882H46.0871V18.2073H45.5063V18.7882ZM43.0554 18.7882H42.4745V19.369H43.0554V18.7882ZM43.0554 14.9316V14.3508H42.4745V14.9316H43.0554ZM45.5063 14.9316V15.5125H46.0871V14.9316H45.5063ZM47.1282 8.22778L46.7582 7.77994L46.7534 7.78399L47.1282 8.22778ZM53.5797 6.85818H54.1606V6.27732H53.5797V6.85818ZM53.5797 10.7868V11.3676H54.1606V10.7868H53.5797ZM50.6243 11.2553L50.229 10.8297L50.229 10.8297L50.6243 11.2553ZM50.1197 14.9316H49.5388V15.5125H50.1197V14.9316ZM61.6532 14.9316H62.2341V14.3508H61.6532V14.9316ZM61.6532 32.8086V33.3895H62.2341V32.8086H61.6532ZM57.0398 32.8086H56.4589V33.3895H57.0398V32.8086ZM57.0398 18.7882H57.6207V18.2073H57.0398V18.7882ZM50.1197 18.7882V18.2073H49.5388V18.7882H50.1197ZM50.1197 32.8086V33.3895H50.7005V32.8086H50.1197ZM57.2921 11.6158L56.8909 12.036L56.9004 12.0447L57.2921 11.6158ZM57.2921 7.83132L57.6828 8.26112L57.6837 8.26027L57.2921 7.83132ZM61.4369 7.83132L61.0359 8.25148L61.0456 8.26079L61.0558 8.26964L61.4369 7.83132ZM61.4369 11.6158L61.0452 11.1867L61.0359 11.1956L61.4369 11.6158ZM46.0871 32.8086V18.7882H44.9254V32.8086H46.0871ZM45.5063 18.2073H43.0554V19.369H45.5063V18.2073ZM43.6363 18.7882V14.9316H42.4745V18.7882H43.6363ZM43.0554 15.5125H45.5063V14.3508H43.0554V15.5125ZM46.0871 14.9316V12.8412H44.9254V14.9316H46.0871ZM46.0871 12.8412C46.0871 10.7587 46.6088 9.42663 47.5029 8.67157L46.7534 7.78399C45.485 8.85508 44.9254 10.5986 44.9254 12.8412H46.0871ZM47.4981 8.6756C48.471 7.87194 49.8162 7.43904 51.5974 7.43904V6.27732C49.6302 6.27732 47.996 6.75749 46.7582 7.77996L47.4981 8.6756ZM51.5974 7.43904H53.5797V6.27732H51.5974V7.43904ZM52.9989 6.85818V10.7868H54.1606V6.85818H52.9989ZM53.5797 10.2059H52.3183V11.3676H53.5797V10.2059ZM52.3183 10.2059C51.4769 10.2059 50.7279 10.3664 50.229 10.8297L51.0195 11.681C51.1934 11.5195 51.5738 11.3676 52.3183 11.3676V10.2059ZM50.229 10.8297C49.7181 11.3041 49.5388 12.0321 49.5388 12.8412H50.7005C50.7005 12.1605 50.8577 11.8312 51.0195 11.681L50.229 10.8297ZM49.5388 12.8412V14.9316H50.7005V12.8412H49.5388ZM50.1197 15.5125H61.6532V14.3508H50.1197V15.5125ZM61.0723 14.9316V32.8086H62.2341V14.9316H61.0723ZM61.6532 32.2277H57.0398V33.3895H61.6532V32.2277ZM57.6207 32.8086V18.7882H56.4589V32.8086H57.6207ZM57.0398 18.2073H50.1197V19.369H57.0398V18.2073ZM49.5388 18.7882V32.8086H50.7005V18.7882H49.5388ZM50.1197 32.2277H45.5063V33.3895H50.1197V32.2277ZM59.3825 11.7918C58.6672 11.7918 58.1159 11.5814 57.6837 11.1868L56.9004 12.0447C57.5736 12.6593 58.4159 12.9535 59.3825 12.9535V11.7918ZM57.6932 11.1956C57.2859 10.8068 57.08 10.325 57.08 9.70551H55.9183C55.9183 10.6239 56.241 11.4155 56.891 12.0359L57.6932 11.1956ZM57.08 9.70551C57.08 9.08625 57.2853 8.62251 57.6828 8.26112L56.9014 7.40152C56.2417 8.00125 55.9183 8.78697 55.9183 9.70551H57.08ZM57.6837 8.26027C58.1159 7.86569 58.6672 7.65529 59.3825 7.65529V6.49357C58.4159 6.49357 57.5736 6.78776 56.9004 7.40236L57.6837 8.26027ZM59.3825 7.65529C60.0984 7.65529 60.6317 7.86564 61.0359 8.25148L61.838 7.41115C61.185 6.78781 60.3487 6.49357 59.3825 6.49357V7.65529ZM61.0558 8.26964C61.4745 8.63376 61.6851 9.09519 61.6851 9.70551H62.8468C62.8468 8.77804 62.5046 7.99 61.8181 7.393L61.0558 8.26964ZM61.6851 9.70551C61.6851 10.3163 61.4737 10.7956 61.0453 11.1868L61.8286 12.0447C62.5055 11.4267 62.8468 10.6325 62.8468 9.70551H61.6851ZM61.0359 11.1956C60.6317 11.5814 60.0984 11.7918 59.3825 11.7918V12.9535C60.3487 12.9535 61.185 12.6593 61.838 12.0359L61.0359 11.1956ZM66.535 32.8086H65.9541V33.3895H66.535V32.8086ZM66.535 14.9316V14.3508H65.9541V14.9316H66.535ZM70.6077 14.9316L71.1845 14.863L71.1235 14.3508H70.6077V14.9316ZM70.9682 17.9592L70.3914 18.0279L70.6133 19.8919L71.4829 18.2283L70.9682 17.9592ZM73.3469 15.4362L73.0514 14.9361L73.0464 14.9392L73.3469 15.4362ZM82.2133 16.5896L81.7771 16.9731L82.2133 16.5896ZM84.0515 32.8086V33.3895H84.6323V32.8086H84.0515ZM79.4381 32.8086H78.8572V33.3895H79.4381V32.8086ZM78.501 19.6171L78.9624 19.2643L78.501 19.6171ZM72.3738 19.7613L71.9465 19.3677L71.9409 19.374L72.3738 19.7613ZM71.1484 32.8086V33.3895H71.7292V32.8086H71.1484ZM67.1158 32.8086V14.9316H65.9541V32.8086H67.1158ZM66.535 15.5125H70.6077V14.3508H66.535V15.5125ZM70.0309 15.0003L70.3914 18.0279L71.5449 17.8905L71.1845 14.863L70.0309 15.0003ZM71.4829 18.2283C71.9857 17.2664 72.704 16.5038 73.6475 15.9333L73.0464 14.9392C71.9234 15.6182 71.0559 16.5375 70.4534 17.6901L71.4829 18.2283ZM73.6424 15.9363C74.5971 15.3722 75.7293 15.08 77.0593 15.08V13.9183C75.554 13.9183 74.2112 14.2508 73.0514 14.9362L73.6424 15.9363ZM77.0593 15.08C79.1379 15.08 80.6831 15.729 81.7771 16.9731L82.6495 16.206C81.2927 14.6629 79.4019 13.9183 77.0593 13.9183V15.08ZM81.7771 16.9731C82.875 18.2217 83.4706 20.1043 83.4706 22.7168H84.6323C84.6323 19.9469 84.0025 17.7447 82.6495 16.206L81.7771 16.9731ZM83.4706 22.7168V32.8086H84.6323V22.7168H83.4706ZM84.0515 32.2277H79.4381V33.3895H84.0515V32.2277ZM80.0189 32.8086V23.1493H78.8572V32.8086H80.0189ZM80.0189 23.1493C80.0189 21.5442 79.6946 20.2218 78.9624 19.2643L78.0396 19.97C78.5568 20.6464 78.8572 21.6788 78.8572 23.1493H80.0189ZM78.9624 19.2643C78.1975 18.264 77.0276 17.8108 75.5816 17.8108V18.9726C76.7786 18.9726 77.555 19.3363 78.0396 19.97L78.9624 19.2643ZM75.5816 17.8108C74.13 17.8108 72.903 18.3293 71.9465 19.3678L72.801 20.1548C73.5266 19.3671 74.4381 18.9726 75.5816 18.9726V17.8108ZM71.9409 19.374C71.0007 20.4249 70.5675 21.8534 70.5675 23.5818H71.7292C71.7292 22.0423 72.113 20.9239 72.8067 20.1486L71.9409 19.374ZM70.5675 23.5818V32.8086H71.7292V23.5818H70.5675ZM71.1484 32.2277H66.535V33.3895H71.1484V32.2277ZM90.8418 32.5203L90.5769 33.0373L90.5871 33.0423L90.8418 32.5203ZM88.6432 30.5379L88.1426 30.8324L88.6432 30.5379ZM89.8686 23.798L90.2305 24.2524L89.8686 23.798ZM100.249 22.2482V22.8291H100.83V22.2482H100.249ZM99.2036 19.1125L99.5739 18.6651L99.2036 19.1125ZM94.1577 18.9323L94.464 19.4258L94.47 19.4221L94.476 19.4182L94.1577 18.9323ZM92.8602 20.8786V21.4595H93.3389L93.4303 20.9895L92.8602 20.8786ZM88.3549 20.8786L87.7765 20.8251L87.7177 21.4595H88.3549V20.8786ZM89.6524 17.4906L89.1988 17.1277L89.1933 17.1348L89.6524 17.4906ZM92.6079 15.2921L92.8328 15.8277L92.8418 15.8237L92.6079 15.2921ZM102.664 16.4094L102.283 16.8478L102.664 16.4094ZM104.862 32.8086V33.3895H105.443V32.8086H104.862ZM100.934 32.8086L100.359 32.8948L100.433 33.3895H100.934V32.8086ZM100.501 29.9252L101.076 29.839L100.821 28.1391L99.9922 29.6453L100.501 29.9252ZM98.2665 32.304L97.9499 31.817L97.9443 31.8207L98.2665 32.304ZM98.735 28.3394L98.2948 27.9603L98.2888 27.9675L98.735 28.3394ZM100.141 25.1316L100.715 25.2183L100.816 24.5507H100.141V25.1316ZM93.581 25.8164L93.9488 26.266L93.9548 26.2611L93.9607 26.256L93.581 25.8164ZM93.581 29.0602L93.9226 28.5904L93.581 29.0602ZM94.6262 32.6602C93.1433 32.6602 91.977 32.4277 91.0965 31.9982L90.5871 33.0423C91.6769 33.5739 93.0335 33.822 94.6262 33.822V32.6602ZM91.1066 32.0033C90.2028 31.5404 89.5597 30.9503 89.1439 30.2434L88.1426 30.8324C88.6879 31.7595 89.5105 32.491 90.577 33.0372L91.1066 32.0033ZM89.1439 30.2434C88.7179 29.5193 88.5032 28.7206 88.5032 27.8348H87.3415C87.3415 28.9192 87.6074 29.9226 88.1426 30.8324L89.1439 30.2434ZM88.5032 27.8348C88.5032 26.3538 89.0713 25.1755 90.2305 24.2524L89.5068 23.3436C88.071 24.487 87.3415 25.9998 87.3415 27.8348H88.5032ZM90.2305 24.2524C91.3814 23.336 93.174 22.8291 95.7075 22.8291V21.6674C93.0509 21.6674 90.951 22.1936 89.5068 23.3436L90.2305 24.2524ZM95.7075 22.8291H100.249V21.6674H95.7075V22.8291ZM100.83 22.2482V21.8157H99.668V22.2482H100.83ZM100.83 21.8157C100.83 20.4823 100.447 19.3878 99.5739 18.6651L98.8333 19.56C99.3536 19.9907 99.668 20.6983 99.668 21.8157H100.83ZM99.5739 18.6651C98.7583 17.99 97.7566 17.6667 96.6085 17.6667V18.8284C97.5269 18.8284 98.2553 19.0817 98.8333 19.56L99.5739 18.6651ZM96.6085 17.6667C95.5729 17.6667 94.6423 17.9204 93.8393 18.4465L94.476 19.4182C95.0667 19.0312 95.77 18.8284 96.6085 18.8284V17.6667ZM93.8514 18.4388C93.0061 18.9634 92.4865 19.7572 92.29 20.7677L93.4303 20.9895C93.5702 20.2699 93.9156 19.7662 94.464 19.4258L93.8514 18.4388ZM92.8602 20.2978H88.3549V21.4595H92.8602V20.2978ZM88.9333 20.9322C89.044 19.7365 89.4392 18.7139 90.1115 17.8465L89.1933 17.1348C88.3758 18.1896 87.9061 19.4257 87.7765 20.8251L88.9333 20.9322ZM90.106 17.8535C90.8107 16.9726 91.7154 16.2969 92.8328 15.8276L92.3829 14.7565C91.0975 15.2964 90.0319 16.0864 89.1988 17.1278L90.106 17.8535ZM92.8418 15.8237C93.9602 15.3317 95.2245 15.08 96.6446 15.08V13.9183C95.0852 13.9183 93.6584 14.1952 92.3739 14.7604L92.8418 15.8237ZM96.6446 15.08C99.096 15.08 100.952 15.6916 102.283 16.8478L103.045 15.9709C101.444 14.5801 99.2872 13.9183 96.6446 13.9183V15.08ZM102.283 16.8478C103.596 17.9889 104.281 19.6163 104.281 21.8157H105.443C105.443 19.3537 104.663 17.3768 103.045 15.9709L102.283 16.8478ZM104.281 21.8157V32.8086H105.443V21.8157H104.281ZM104.862 32.2277H100.934V33.3895H104.862V32.2277ZM101.508 32.7224L101.076 29.839L99.9267 30.0114L100.359 32.8948L101.508 32.7224ZM99.9922 29.6453C99.5117 30.5188 98.8346 31.242 97.9499 31.817L98.5831 32.791C99.6206 32.1166 100.433 31.2539 101.01 30.2051L99.9922 29.6453ZM97.9443 31.8207C97.1289 32.3643 96.0377 32.6602 94.6262 32.6602V33.822C96.1943 33.822 97.5298 33.4932 98.5887 32.7873L97.9443 31.8207ZM95.6715 30.2177C97.1321 30.2177 98.3304 29.7322 99.1813 28.7112L98.2888 27.9675C97.698 28.6765 96.8539 29.056 95.6715 29.056V30.2177ZM99.1752 28.7184C100 27.7602 100.509 26.5857 100.715 25.2183L99.5663 25.0449C99.3883 26.2245 98.9595 27.1885 98.2949 27.9603L99.1752 28.7184ZM100.141 24.5507H96.2121V25.7125H100.141V24.5507ZM96.2121 24.5507C94.9425 24.5507 93.8902 24.7819 93.2013 25.3768L93.9607 26.256C94.329 25.9379 95.0308 25.7125 96.2121 25.7125V24.5507ZM93.2132 25.3668C92.5579 25.903 92.2072 26.605 92.2072 27.4383H93.3689C93.3689 26.9741 93.5469 26.5948 93.9488 26.266L93.2132 25.3668ZM92.2072 27.4383C92.2072 28.3066 92.5492 29.028 93.2394 29.53L93.9226 28.5904C93.5556 28.3235 93.3689 27.9637 93.3689 27.4383H92.2072ZM93.2394 29.53C93.895 30.0068 94.7231 30.2177 95.6715 30.2177V29.056C94.8898 29.056 94.3243 28.8825 93.9226 28.5904L93.2394 29.53ZM109.265 32.8086H108.684V33.3895H109.265V32.8086ZM109.265 14.9316V14.3508H108.684V14.9316H109.265ZM113.337 14.9316L113.914 14.863L113.853 14.3508H113.337V14.9316ZM113.698 17.9592L113.121 18.0279L113.343 19.8919L114.213 18.2283L113.698 17.9592ZM116.077 15.4362L115.781 14.9361L115.776 14.9392L116.077 15.4362ZM124.943 16.5896L124.507 16.9731L124.943 16.5896ZM126.781 32.8086V33.3895H127.362V32.8086H126.781ZM122.168 32.8086H121.587V33.3895H122.168V32.8086ZM121.231 19.6171L121.692 19.2643L121.231 19.6171ZM115.104 19.7613L114.676 19.3677L114.671 19.374L115.104 19.7613ZM113.878 32.8086V33.3895H114.459V32.8086H113.878ZM109.846 32.8086V14.9316H108.684V32.8086H109.846ZM109.265 15.5125H113.337V14.3508H109.265V15.5125ZM112.761 15.0003L113.121 18.0279L114.275 17.8905L113.914 14.863L112.761 15.0003ZM114.213 18.2283C114.715 17.2664 115.434 16.5038 116.377 15.9333L115.776 14.9392C114.653 15.6182 113.786 16.5375 113.183 17.6901L114.213 18.2283ZM116.372 15.9363C117.327 15.3722 118.459 15.08 119.789 15.08V13.9183C118.284 13.9183 116.941 14.2508 115.781 14.9362L116.372 15.9363ZM119.789 15.08C121.868 15.08 123.413 15.729 124.507 16.9731L125.379 16.206C124.022 14.6629 122.132 13.9183 119.789 13.9183V15.08ZM124.507 16.9731C125.605 18.2217 126.2 20.1043 126.2 22.7168H127.362C127.362 19.9469 126.732 17.7447 125.379 16.206L124.507 16.9731ZM126.2 22.7168V32.8086H127.362V22.7168H126.2ZM126.781 32.2277H122.168V33.3895H126.781V32.2277ZM122.749 32.8086V23.1493H121.587V32.8086H122.749ZM122.749 23.1493C122.749 21.5442 122.424 20.2218 121.692 19.2643L120.769 19.97C121.287 20.6464 121.587 21.6788 121.587 23.1493H122.749ZM121.692 19.2643C120.927 18.264 119.757 17.8108 118.311 17.8108V18.9726C119.508 18.9726 120.285 19.3363 120.769 19.97L121.692 19.2643ZM118.311 17.8108C116.86 17.8108 115.633 18.3293 114.676 19.3678L115.531 20.1548C116.256 19.3671 117.168 18.9726 118.311 18.9726V17.8108ZM114.671 19.374C113.73 20.4249 113.297 21.8534 113.297 23.5818H114.459C114.459 22.0423 114.843 20.9239 115.536 20.1486L114.671 19.374ZM113.297 23.5818V32.8086H114.459V23.5818H113.297ZM113.878 32.2277H109.265V33.3895H113.878V32.2277ZM135.121 32.0517L135.409 31.5468L135.121 32.0517ZM131.805 28.7358L131.298 29.0194L131.302 29.0258L131.805 28.7358ZM131.805 19.0044L131.302 18.7144L131.299 18.7209L131.805 19.0044ZM135.121 15.6885L135.409 16.1934L135.121 15.6885ZM145.718 16.3012L145.364 16.7617L145.368 16.7651L145.718 16.3012ZM148.709 21.203V21.7838H149.423L149.278 21.0853L148.709 21.203ZM143.844 21.203L143.284 21.3585L143.402 21.7838H143.844V21.203ZM142.402 19.1846L142.061 19.6551L142.07 19.6617L142.08 19.6679L142.402 19.1846ZM136.671 19.8694L136.245 19.475L136.671 19.8694ZM136.671 27.8708L137.098 27.4764L136.671 27.8708ZM142.402 28.5917L142.08 28.1083L142.072 28.1135L142.402 28.5917ZM143.844 26.5372V25.9564H143.399L143.283 26.3857L143.844 26.5372ZM148.709 26.5372L149.277 26.6589L149.428 25.9564H148.709V26.5372ZM145.718 31.4029L145.359 30.946L145.718 31.4029ZM139.951 32.6602C138.211 32.6602 136.703 32.2834 135.409 31.5468L134.834 32.5566C136.327 33.4059 138.038 33.822 139.951 33.822V32.6602ZM135.409 31.5468C134.107 30.8061 133.075 29.7758 132.309 28.4458L131.302 29.0258C132.17 30.5311 133.349 31.7114 134.834 32.5566L135.409 31.5468ZM132.312 28.4523C131.574 27.1316 131.197 25.6095 131.197 23.8701H130.035C130.035 25.783 130.451 27.5047 131.299 29.0194L132.312 28.4523ZM131.197 23.8701C131.197 22.1307 131.574 20.6086 132.312 19.288L131.299 18.7209C130.451 20.2355 130.035 21.9573 130.035 23.8701H131.197ZM132.309 19.2944C133.075 17.9644 134.107 16.9341 135.409 16.1934L134.834 15.1837C133.349 16.0288 132.17 17.2091 131.302 18.7144L132.309 19.2944ZM135.409 16.1934C136.703 15.4569 138.211 15.08 139.951 15.08V13.9183C138.038 13.9183 136.327 14.3343 134.834 15.1837L135.409 16.1934ZM139.951 15.08C142.127 15.08 143.919 15.6503 145.364 16.7616L146.072 15.8408C144.393 14.5493 142.341 13.9183 139.951 13.9183V15.08ZM145.368 16.7651C146.807 17.8495 147.734 19.3548 148.14 21.3207L149.278 21.0853C148.82 18.8703 147.753 17.1078 146.067 15.8374L145.368 16.7651ZM148.709 20.6221H143.844V21.7838H148.709V20.6221ZM144.403 21.0475C144.127 20.0536 143.565 19.2622 142.724 18.7013L142.08 19.6679C142.68 20.0682 143.079 20.6223 143.284 21.3585L144.403 21.0475ZM142.743 18.7142C141.935 18.1295 140.983 17.8469 139.915 17.8469V19.0086C140.769 19.0086 141.475 19.2306 142.061 19.6551L142.743 18.7142ZM139.915 17.8469C138.475 17.8469 137.24 18.3988 136.245 19.475L137.098 20.2639C137.88 19.4178 138.808 19.0086 139.915 19.0086V17.8469ZM136.245 19.475C135.229 20.5728 134.757 22.0635 134.757 23.8701H135.918C135.918 22.2647 136.335 21.0883 137.098 20.2639L136.245 19.475ZM134.757 23.8701C134.757 25.6767 135.229 27.1674 136.245 28.2652L137.098 27.4764C136.335 26.652 135.918 25.4755 135.918 23.8701H134.757ZM136.245 28.2652C137.24 29.3414 138.475 29.8934 139.915 29.8934V28.7316C138.808 28.7316 137.88 28.3224 137.098 27.4764L136.245 28.2652ZM139.915 29.8934C140.977 29.8934 141.925 29.6261 142.732 29.0698L142.072 28.1135C141.485 28.5184 140.775 28.7316 139.915 28.7316V29.8934ZM142.724 29.075C143.57 28.5112 144.13 27.7044 144.404 26.6888L143.283 26.3857C143.077 27.1482 142.676 27.711 142.08 28.1083L142.724 29.075ZM143.844 27.1181H148.709V25.9564H143.844V27.1181ZM148.141 26.4155C147.736 28.3068 146.81 29.8079 145.359 30.946L146.076 31.8599C147.75 30.5471 148.818 28.8044 149.277 26.6589L148.141 26.4155ZM145.359 30.946C143.915 32.0794 142.124 32.6602 139.951 32.6602V33.822C142.343 33.822 144.397 33.1774 146.076 31.8599L145.359 30.946ZM156.697 32.0877L156.977 31.5792L156.697 32.0877ZM153.381 19.0765L152.872 18.7965L152.868 18.8032L153.381 19.0765ZM156.625 15.7246L156.916 16.2273L156.918 16.2257L156.625 15.7246ZM166.176 15.6525L165.888 16.1568L166.176 15.6525ZM169.311 18.8242L168.803 19.1056L168.809 19.1163L169.311 18.8242ZM170.429 24.0864L169.85 24.0381L169.848 24.0622V24.0864H170.429ZM170.393 24.9874V25.5683H170.931L170.972 25.032L170.393 24.9874ZM156.805 24.9874V24.4066H156.182L156.225 25.0274L156.805 24.9874ZM158.246 28.2673L157.854 28.6955L157.86 28.7008L158.246 28.2673ZM163.797 28.8439L164.115 29.3301L164.119 29.3272L163.797 28.8439ZM165.239 27.186V26.6051H164.868L164.712 26.9414L165.239 27.186ZM169.924 27.186L170.481 27.3518L170.703 26.6051H169.924V27.186ZM168.23 30.2856L167.787 29.9104L167.786 29.9115L168.23 30.2856ZM165.347 32.4482L165.105 31.9201L165.1 31.9221L165.347 32.4482ZM158.535 19.2207L158.875 19.6916L158.883 19.6854L158.535 19.2207ZM156.877 22.104L156.306 21.9983L156.179 22.6849H156.877V22.104ZM165.779 22.104V22.6849H166.397L166.359 22.0686L165.779 22.104ZM164.482 19.2928L164.865 18.8564L164.482 19.2928ZM161.49 32.6602C159.773 32.6602 158.274 32.2947 156.977 31.5792L156.416 32.5963C157.906 33.4186 159.603 33.822 161.49 33.822V32.6602ZM156.977 31.5792C155.678 30.8624 154.662 29.858 153.922 28.5567L152.912 29.1312C153.757 30.6171 154.928 31.7753 156.416 32.5963L156.977 31.5792ZM153.922 28.5567C153.185 27.2622 152.808 25.7539 152.808 24.0143H151.646C151.646 25.9269 152.063 27.6384 152.912 29.1312L153.922 28.5567ZM152.808 24.0143C152.808 22.2467 153.175 20.6968 153.893 19.3498L152.868 18.8032C152.049 20.3396 151.646 22.0815 151.646 24.0143H152.808ZM153.89 19.3564C154.634 18.0036 155.641 16.965 156.916 16.2273L156.333 15.2219C154.869 16.07 153.714 17.266 152.872 18.7966L153.89 19.3564ZM156.918 16.2257C158.209 15.4688 159.739 15.08 161.526 15.08V13.9183C159.566 13.9183 157.827 14.3464 156.331 15.2235L156.918 16.2257ZM161.526 15.08C163.193 15.08 164.641 15.4444 165.888 16.1568L166.464 15.1482C165.019 14.3228 163.368 13.9183 161.526 13.9183V15.08ZM165.888 16.1568C167.141 16.8734 168.11 17.8538 168.803 19.1055L169.82 18.5429C169.023 17.1035 167.901 15.9694 166.464 15.1482L165.888 16.1568ZM168.809 19.1163C169.523 20.3431 169.884 21.7188 169.884 23.2574H171.046C171.046 21.5282 170.638 19.9484 169.813 18.5321L168.809 19.1163ZM169.884 23.2574C169.884 23.5042 169.873 23.7644 169.85 24.0381L171.008 24.1346C171.033 23.8317 171.046 23.5392 171.046 23.2574H169.884ZM169.848 24.0864C169.848 24.3586 169.836 24.6441 169.814 24.9429L170.972 25.032C170.997 24.706 171.01 24.3908 171.01 24.0864H169.848ZM170.393 24.4066H156.805V25.5683H170.393V24.4066ZM156.225 25.0274C156.33 26.5395 156.859 27.7832 157.854 28.6955L158.639 27.8391C157.904 27.1655 157.472 26.2226 157.384 24.9475L156.225 25.0274ZM157.86 28.7008C158.861 29.5936 160.07 30.0375 161.454 30.0375V28.8758C160.34 28.8758 159.41 28.5268 158.633 27.8338L157.86 28.7008ZM161.454 30.0375C162.475 30.0375 163.374 29.8144 164.115 29.3301L163.479 28.3578C162.97 28.6904 162.307 28.8758 161.454 28.8758V30.0375ZM164.119 29.3272C164.852 28.8387 165.406 28.2053 165.765 27.4306L164.712 26.9414C164.447 27.5123 164.039 27.9842 163.475 28.3606L164.119 29.3272ZM165.239 27.7669H169.924V26.6051H165.239V27.7669ZM169.367 27.0202C169.055 28.0694 168.53 29.0319 167.787 29.9104L168.674 30.6608C169.516 29.6651 170.121 28.5612 170.481 27.3518L169.367 27.0202ZM167.786 29.9115C167.076 30.7549 166.185 31.425 165.105 31.9201L165.589 32.9762C166.815 32.4142 167.847 31.6425 168.674 30.6598L167.786 29.9115ZM165.1 31.9221C164.059 32.4094 162.86 32.6602 161.49 32.6602V33.822C163.004 33.822 164.375 33.5442 165.593 32.9742L165.1 31.9221ZM161.526 17.6667C160.277 17.6667 159.156 18.0283 158.186 18.756L158.883 19.6854C159.643 19.1155 160.517 18.8284 161.526 18.8284V17.6667ZM158.195 18.7498C157.181 19.4816 156.566 20.5905 156.306 21.9983L157.448 22.2098C157.668 21.0226 158.158 20.2092 158.875 19.6916L158.195 18.7498ZM156.877 22.6849H165.779V21.5232H156.877V22.6849ZM166.359 22.0686C166.279 20.7566 165.788 19.6678 164.865 18.8564L164.098 19.7291C164.761 20.3113 165.136 21.0967 165.199 22.1395L166.359 22.0686ZM164.865 18.8564C163.954 18.0555 162.827 17.6667 161.526 17.6667V18.8284C162.58 18.8284 163.424 19.1363 164.098 19.7291L164.865 18.8564Z" fill="#FDFDFD"/>
<rect width="26.803" height="40.0792" rx="4.00792" fill="url(#paint0_linear_595_9342)"/>
<g filter="url(#filter0_d_595_9342)">
<path d="M9.01782 15.7812C9.01782 14.3977 10.1393 13.2762 11.5228 13.2762H33.5663C34.9498 13.2762 36.0713 14.3977 36.0713 15.7812V37.5743C36.0713 38.9577 34.9498 40.0792 33.5663 40.0792H9.01782V15.7812Z" fill="#037C66"/>
</g>
<g clip-path="url(#clip0_595_9342)">
<path d="M24.8318 21.2739H20.4753L18.8621 18.8534C18.6204 18.4912 18.8791 18.0066 19.3147 18.0066H25.9923C26.428 18.0066 26.6867 18.4912 26.445 18.8534L24.8318 21.2739ZM20.4753 22.363H24.8318C24.9611 22.4481 25.1074 22.5434 25.2436 22.6489C27.204 23.8844 31.3664 26.5459 31.3664 32.165C31.3664 33.9688 29.9029 35.4323 28.0991 35.4323H17.208C15.4035 35.4323 13.9407 33.9688 13.9407 32.165C13.9407 26.5459 18.1031 23.8844 20.0329 22.6489C20.1996 22.5434 20.346 22.4481 20.4753 22.363ZM23.3376 25.6304C23.3376 25.2526 23.0313 24.9463 22.6229 24.9463C22.2758 24.9463 21.9694 25.2526 21.9694 25.6304V25.8346C21.7789 25.8754 21.5678 25.9333 21.4283 26.0081C20.9212 26.2396 20.4787 26.6684 20.3698 27.2912C20.3086 27.6384 20.3426 27.9753 20.4855 28.2782C20.6285 28.5778 20.8497 28.7888 21.0743 28.9419C21.4691 29.2108 21.9899 29.3674 22.3881 29.4865L22.463 29.5069C22.9394 29.6533 23.2594 29.7588 23.4602 29.9051C23.5453 29.9664 23.5759 30.014 23.5861 30.0446C23.5997 30.0719 23.6201 30.1331 23.5963 30.2693C23.5759 30.3884 23.5112 30.4905 23.324 30.5688C23.1164 30.6573 22.7795 30.7015 22.3438 30.6334C22.1396 30.5994 21.7755 30.4769 21.4521 30.368C21.3772 30.3408 21.3024 30.3169 21.2343 30.2931C20.8769 30.174 20.4923 30.368 20.3732 30.7253C20.2541 31.0827 20.4481 31.4673 20.8055 31.5558C20.8463 31.6 20.8974 31.6171 20.9552 31.6375C21.1935 31.7294 21.6461 31.8723 21.9694 31.9472V32.165C21.9694 32.5428 22.2758 32.8491 22.6229 32.8491C23.0313 32.8491 23.3376 32.5428 23.3376 32.165V31.9778C23.518 31.9438 23.695 31.8621 23.8584 31.8213C24.3961 31.5932 24.825 31.1508 24.9373 30.5041C24.9985 30.1502 24.9713 29.8098 24.8352 29.5001C24.7024 29.1938 24.488 28.9692 24.26 28.8058C23.8482 28.5029 23.2968 28.3395 22.885 28.2136L22.8271 28.2068C22.3745 28.0604 22.0477 27.9583 21.8401 27.8154C21.7516 27.7541 21.7244 27.7133 21.7176 27.6963C21.7108 27.6826 21.6904 27.6418 21.7108 27.5261C21.7244 27.458 21.7755 27.3457 21.9899 27.2504C22.1805 27.1517 22.548 27.0972 22.9633 27.1313C23.113 27.1857 23.5725 27.2742 23.7052 27.3083C24.066 27.407 24.4404 27.1891 24.5357 26.825C24.6344 26.4642 24.4165 26.0898 24.0524 25.9945C23.9026 25.9537 23.5623 25.8856 23.3376 25.8448V25.6304Z" fill="#33B099"/>
</g>
<defs>
<filter id="filter0_d_595_9342" x="3.75743" y="8.01585" width="32.3139" height="32.0634" filterUnits="userSpaceOnUse" color-interpolation-filters="sRGB">
<feFlood flood-opacity="0" result="BackgroundImageFix"/>
<feColorMatrix in="SourceAlpha" type="matrix" values="0 0 0 0 0 0 0 0 0 0 0 0 0 0 0 0 0 0 127 0" result="hardAlpha"/>
<feMorphology radius="1.75347" operator="erode" in="SourceAlpha" result="effect1_dropShadow_595_9342"/>
<feOffset dx="-2.75545" dy="-2.75545"/>
<feGaussianBlur stdDeviation="2.12921"/>
<feComposite in2="hardAlpha" operator="out"/>
<feColorMatrix type="matrix" values="0 0 0 0 0 0 0 0 0 0 0 0 0 0 0 0 0 0 0.17 0"/>
<feBlend mode="normal" in2="BackgroundImageFix" result="effect1_dropShadow_595_9342"/>
<feBlend mode="normal" in="SourceGraphic" in2="effect1_dropShadow_595_9342" result="shape"/>
</filter>
<linearGradient id="paint0_linear_595_9342" x1="0" y1="0" x2="52.058" y2="25.5129" gradientUnits="userSpaceOnUse">
<stop stop-color="#29AE96"/>
<stop offset="1" stop-color="#5AB8A7"/>
</linearGradient>
<clipPath id="clip0_595_9342">
<rect width="17.4257" height="17.4257" fill="white" transform="translate(13.9407 18.0066)"/>
</clipPath>
</defs>
</svg>
