<svg width="37" height="41" viewBox="0 0 37 41" fill="none" xmlns="http://www.w3.org/2000/svg">
<rect width="26.7995" height="40.0741" rx="4.00741" fill="url(#paint0_linear_595_9349)"/>
<g filter="url(#filter0_d_595_9349)">
<path d="M9.0166 15.7792C9.0166 14.3959 10.138 13.2745 11.5212 13.2745H33.562C34.9452 13.2745 36.0666 14.3959 36.0666 15.7792V37.5694C36.0666 38.9527 34.9452 40.0741 33.562 40.0741H9.0166V15.7792Z" fill="#037C66"/>
</g>
<g clip-path="url(#clip0_595_9349)">
<path d="M24.8284 21.2712H20.4725L18.8595 18.8509C18.6179 18.4889 18.8765 18.0043 19.3121 18.0043H25.9888C26.4244 18.0043 26.6831 18.4889 26.4415 18.8509L24.8284 21.2712ZM20.4725 22.3602H24.8284C24.9577 22.4452 25.1041 22.5405 25.2402 22.646C27.2003 23.8813 31.3622 26.5425 31.3622 32.1609C31.3622 33.9645 29.8989 35.4278 28.0953 35.4278H17.2056C15.4013 35.4278 13.9387 33.9645 13.9387 32.1609C13.9387 26.5425 18.1006 23.8813 20.0301 22.646C20.1969 22.5405 20.3432 22.4452 20.4725 22.3602ZM23.3345 25.6271C23.3345 25.2493 23.0282 24.943 22.6198 24.943C22.2727 24.943 21.9665 25.2493 21.9665 25.6271V25.8312C21.7759 25.8721 21.5649 25.9299 21.4254 26.0048C20.9183 26.2362 20.4759 26.665 20.367 27.2877C20.3058 27.6348 20.3398 27.9717 20.4827 28.2746C20.6257 28.5741 20.8469 28.7851 21.0715 28.9382C21.4662 29.207 21.9869 29.3636 22.385 29.4827L22.4599 29.5031C22.9363 29.6494 23.2562 29.7549 23.457 29.9013C23.5421 29.9625 23.5727 30.0102 23.5829 30.0408C23.5965 30.068 23.6169 30.1293 23.5931 30.2654C23.5727 30.3845 23.508 30.4866 23.3209 30.5649C23.1133 30.6533 22.7764 30.6976 22.3408 30.6295C22.1366 30.5955 21.7725 30.473 21.4492 30.3641C21.3743 30.3369 21.2995 30.313 21.2314 30.2892C20.8741 30.1701 20.4896 30.3641 20.3704 30.7214C20.2513 31.0787 20.4453 31.4633 20.8026 31.5517C20.8435 31.596 20.8945 31.613 20.9524 31.6334C21.1906 31.7253 21.6432 31.8682 21.9665 31.9431V32.1609C21.9665 32.5386 22.2727 32.8449 22.6198 32.8449C23.0282 32.8449 23.3345 32.5386 23.3345 32.1609V31.9737C23.5148 31.9397 23.6918 31.858 23.8551 31.8172C24.3928 31.5892 24.8216 31.1468 24.9339 30.5002C24.9952 30.1463 24.9679 29.806 24.8318 29.4963C24.6991 29.19 24.4847 28.9654 24.2567 28.8021C23.8449 28.4992 23.2936 28.3359 22.8819 28.21L22.824 28.2032C22.3714 28.0568 22.0447 27.9547 21.8372 27.8118C21.7487 27.7505 21.7214 27.7097 21.7146 27.6927C21.7078 27.6791 21.6874 27.6382 21.7078 27.5225C21.7214 27.4545 21.7725 27.3422 21.9869 27.2469C22.1775 27.1482 22.545 27.0938 22.9602 27.1278C23.1099 27.1822 23.5693 27.2707 23.702 27.3048C24.0627 27.4034 24.4371 27.1856 24.5324 26.8215C24.631 26.4608 24.4132 26.0865 24.0491 25.9912C23.8994 25.9503 23.5591 25.8823 23.3345 25.8414V25.6271Z" fill="#33B099"/>
</g>
<defs>
<filter id="filter0_d_595_9349" x="3.75688" y="8.01481" width="32.3098" height="32.0593" filterUnits="userSpaceOnUse" color-interpolation-filters="sRGB">
<feFlood flood-opacity="0" result="BackgroundImageFix"/>
<feColorMatrix in="SourceAlpha" type="matrix" values="0 0 0 0 0 0 0 0 0 0 0 0 0 0 0 0 0 0 127 0" result="hardAlpha"/>
<feMorphology radius="1.75324" operator="erode" in="SourceAlpha" result="effect1_dropShadow_595_9349"/>
<feOffset dx="-2.75509" dy="-2.75509"/>
<feGaussianBlur stdDeviation="2.12894"/>
<feComposite in2="hardAlpha" operator="out"/>
<feColorMatrix type="matrix" values="0 0 0 0 0 0 0 0 0 0 0 0 0 0 0 0 0 0 0.17 0"/>
<feBlend mode="normal" in2="BackgroundImageFix" result="effect1_dropShadow_595_9349"/>
<feBlend mode="normal" in="SourceGraphic" in2="effect1_dropShadow_595_9349" result="shape"/>
</filter>
<linearGradient id="paint0_linear_595_9349" x1="0" y1="0" x2="52.0513" y2="25.5097" gradientUnits="userSpaceOnUse">
<stop stop-color="#29AE96"/>
<stop offset="1" stop-color="#5AB8A7"/>
</linearGradient>
<clipPath id="clip0_595_9349">
<rect width="17.4235" height="17.4235" fill="white" transform="translate(13.9387 18.0043)"/>
</clipPath>
</defs>
</svg>
