<svg width="63" height="69" viewBox="0 0 63 69" fill="none" xmlns="http://www.w3.org/2000/svg">
<rect width="46.1437" height="69" rx="6.9" fill="url(#paint0_linear_553_9286)"/>
<g filter="url(#filter0_d_553_9286)">
<path d="M15.5249 27.1687C15.5249 24.787 17.4557 22.8562 19.8374 22.8562H57.7874C60.1691 22.8562 62.0999 24.787 62.0999 27.1687V64.6875C62.0999 67.0692 60.1691 69 57.7874 69H15.5249V27.1687Z" fill="#037C66"/>
</g>
<mask id="mask0_553_9286" style="mask-type:alpha" maskUnits="userSpaceOnUse" x="25" y="32" width="27" height="27">
<path fill-rule="evenodd" clip-rule="evenodd" d="M28.8332 38.25C29.4741 38.25 30.0888 37.9953 30.542 37.5421C30.9952 37.0889 31.2498 36.4742 31.2498 35.8333C31.2498 35.1924 30.9952 34.5777 30.542 34.1245C30.0888 33.6712 29.4741 33.4166 28.8332 33.4166C28.1922 33.4166 27.5775 33.6712 27.1243 34.1245C26.6711 34.5777 26.4165 35.1924 26.4165 35.8333C26.4165 36.4742 26.6711 37.0889 27.1243 37.5421C27.5775 37.9953 28.1922 38.25 28.8332 38.25V38.25ZM30.0415 56.375C31.0029 56.375 31.9249 55.993 32.6048 55.3132C33.2846 54.6334 33.6665 53.7114 33.6665 52.75C33.6665 51.7885 33.2846 50.8665 32.6048 50.1867C31.9249 49.5069 31.0029 49.125 30.0415 49.125C29.0801 49.125 28.1581 49.5069 27.4782 50.1867C26.7984 50.8665 26.4165 51.7885 26.4165 52.75C26.4165 53.7114 26.7984 54.6334 27.4782 55.3132C28.1581 55.993 29.0801 56.375 30.0415 56.375V56.375ZM46.9582 57.5833C47.9196 57.5833 48.8416 57.2014 49.5214 56.5216C50.2013 55.8417 50.5832 54.9197 50.5832 53.9583C50.5832 52.9969 50.2013 52.0748 49.5214 51.395C48.8416 50.7152 47.9196 50.3333 46.9582 50.3333C45.9968 50.3333 45.0747 50.7152 44.3949 51.395C43.7151 52.0748 43.3332 52.9969 43.3332 53.9583C43.3332 54.9197 43.7151 55.8417 44.3949 56.5216C45.0747 57.2014 45.9968 57.5833 46.9582 57.5833ZM37.2915 47.9166C38.5734 47.9166 39.8028 47.4074 40.7092 46.501C41.6156 45.5945 42.1248 44.3652 42.1248 43.0833C42.1248 41.8014 41.6156 40.572 40.7092 39.6656C39.8028 38.7592 38.5734 38.25 37.2915 38.25C36.0096 38.25 34.7802 38.7592 33.8738 39.6656C32.9674 40.572 32.4582 41.8014 32.4582 43.0833C32.4582 44.3652 32.9674 45.5945 33.8738 46.501C34.7802 47.4074 36.0096 47.9166 37.2915 47.9166V47.9166ZM44.5415 38.25C45.1824 38.25 45.7971 37.9953 46.2503 37.5421C46.7036 37.0889 46.9582 36.4742 46.9582 35.8333C46.9582 35.1924 46.7036 34.5777 46.2503 34.1245C45.7971 33.6712 45.1824 33.4166 44.5415 33.4166C43.9006 33.4166 43.2859 33.6712 42.8327 34.1245C42.3794 34.5777 42.1248 35.1924 42.1248 35.8333C42.1248 36.4742 42.3794 37.0889 42.8327 37.5421C43.2859 37.9953 43.9006 38.25 44.5415 38.25V38.25Z" fill="white" stroke="white" stroke-width="2.41667" stroke-linecap="round" stroke-linejoin="round"/>
<path d="M30.6458 37.6458L33.0624 40.0624M42.1249 38.2499L40.9166 39.4583M44.5416 51.2395L40.9166 46.7083M32.4583 49.7291L34.8749 47.3124" stroke="white" stroke-width="2.41667" stroke-linecap="round" stroke-linejoin="round"/>
</mask>
<g mask="url(#mask0_553_9286)">
<path d="M24 31H53V60H24V31Z" fill="#32B099"/>
</g>
<defs>
<filter id="filter0_d_553_9286" x="6.46865" y="13.8" width="55.6312" height="55.2" filterUnits="userSpaceOnUse" color-interpolation-filters="sRGB">
<feFlood flood-opacity="0" result="BackgroundImageFix"/>
<feColorMatrix in="SourceAlpha" type="matrix" values="0 0 0 0 0 0 0 0 0 0 0 0 0 0 0 0 0 0 127 0" result="hardAlpha"/>
<feMorphology radius="3.01875" operator="erode" in="SourceAlpha" result="effect1_dropShadow_553_9286"/>
<feOffset dx="-4.74375" dy="-4.74375"/>
<feGaussianBlur stdDeviation="3.66563"/>
<feComposite in2="hardAlpha" operator="out"/>
<feColorMatrix type="matrix" values="0 0 0 0 0 0 0 0 0 0 0 0 0 0 0 0 0 0 0.17 0"/>
<feBlend mode="normal" in2="BackgroundImageFix" result="effect1_dropShadow_553_9286"/>
<feBlend mode="normal" in="SourceGraphic" in2="effect1_dropShadow_553_9286" result="shape"/>
</filter>
<linearGradient id="paint0_linear_553_9286" x1="0" y1="0" x2="89.6225" y2="43.9228" gradientUnits="userSpaceOnUse">
<stop stop-color="#29AE96"/>
<stop offset="1" stop-color="#5AB8A7"/>
</linearGradient>
</defs>
</svg>
