<svg width="82" height="92" viewBox="0 0 82 92" fill="none" xmlns="http://www.w3.org/2000/svg">
<rect y="0.888885" width="60.9306" height="91.1111" rx="9.11111" fill="url(#paint0_linear_578_9370)"/>
<g filter="url(#filter0_d_578_9370)">
<path d="M20.5 36.7639C20.5 33.6189 23.0495 31.0694 26.1944 31.0694H76.3056C79.4505 31.0694 82 33.6189 82 36.7639V86.3055C82 89.4505 79.4505 92 76.3056 92H20.5V36.7639Z" fill="#037C66"/>
</g>
<path d="M63.2432 54.161C61.7906 54.161 60.5558 53.6526 59.5389 52.6357C58.5221 51.6188 58.0136 50.3841 58.0136 48.9314C58.0136 47.4787 58.5221 46.244 59.5389 45.2271C60.5558 44.2102 61.7906 43.7018 63.2432 43.7018C64.6959 43.7018 65.9307 44.2102 66.9475 45.2271C67.9644 46.244 68.4728 47.4787 68.4728 48.9314C68.4728 50.3841 67.9644 51.6188 66.9475 52.6357C65.9307 53.6526 64.6959 54.161 63.2432 54.161ZM37.0953 75.0794C36.1365 75.0794 35.3161 74.7383 34.6339 74.0561C33.9506 73.3728 33.6089 72.5517 33.6089 71.593V50.6746C33.6089 49.7158 33.9506 48.8954 34.6339 48.2132C35.3161 47.5299 36.1365 47.1882 37.0953 47.1882H54.7016C54.5854 47.7693 54.5273 48.3503 54.5273 48.9314C54.5273 49.5125 54.5854 50.0935 54.7016 50.6746C54.9049 51.6043 55.2391 52.4683 55.7039 53.2667C56.1688 54.0663 56.7353 54.7711 57.4035 55.3812L51.0409 59.3906L39.3614 52.0692C38.8675 51.7496 38.3667 51.735 37.8588 52.0256C37.3498 52.3161 37.0953 52.7519 37.0953 53.333C37.0953 53.5944 37.1534 53.8344 37.2696 54.0529C37.3858 54.2702 37.5601 54.4515 37.7926 54.5968L50.1257 62.3104C50.4162 62.4848 50.7213 62.5719 51.0409 62.5719C51.3604 62.5719 51.6655 62.4848 51.956 62.3104L60.2362 57.1244C60.7301 57.2987 61.224 57.4295 61.7179 57.5166C62.2118 57.6038 62.7203 57.6474 63.2432 57.6474C64.1729 57.6474 65.0881 57.5021 65.9888 57.2116C66.8894 56.921 67.7174 56.4853 68.4728 55.9042V71.593C68.4728 72.5517 68.1317 73.3728 67.4496 74.0561C66.7662 74.7383 65.9452 75.0794 64.9864 75.0794H37.0953Z" fill="white"/>
<defs>
<filter id="filter0_d_578_9370" x="8.54167" y="19.1111" width="73.4583" height="72.8889" filterUnits="userSpaceOnUse" color-interpolation-filters="sRGB">
<feFlood flood-opacity="0" result="BackgroundImageFix"/>
<feColorMatrix in="SourceAlpha" type="matrix" values="0 0 0 0 0 0 0 0 0 0 0 0 0 0 0 0 0 0 127 0" result="hardAlpha"/>
<feMorphology radius="3.98611" operator="erode" in="SourceAlpha" result="effect1_dropShadow_578_9370"/>
<feOffset dx="-6.26389" dy="-6.26389"/>
<feGaussianBlur stdDeviation="4.84028"/>
<feComposite in2="hardAlpha" operator="out"/>
<feColorMatrix type="matrix" values="0 0 0 0 0 0 0 0 0 0 0 0 0 0 0 0 0 0 0.17 0"/>
<feBlend mode="normal" in2="BackgroundImageFix" result="effect1_dropShadow_578_9370"/>
<feBlend mode="normal" in="SourceGraphic" in2="effect1_dropShadow_578_9370" result="shape"/>
</filter>
<linearGradient id="paint0_linear_578_9370" x1="0" y1="0.888885" x2="118.342" y2="58.8868" gradientUnits="userSpaceOnUse">
<stop stop-color="#29AE96"/>
<stop offset="1" stop-color="#5AB8A7"/>
</linearGradient>
</defs>
</svg>
