<svg width="157" height="41" viewBox="0 0 157 41" fill="none" xmlns="http://www.w3.org/2000/svg">
<path d="M43.6939 31.6475V14.2663H47.6537L48.0041 17.2099C48.5415 16.182 49.3124 15.3643 50.317 14.7569C51.3449 14.1495 52.548 13.8458 53.9263 13.8458C56.0756 13.8458 57.746 14.5233 58.9374 15.8783C60.1289 17.2333 60.7246 19.219 60.7246 21.8355V31.6475H56.2392V22.256C56.2392 20.7609 55.9355 19.6162 55.328 18.8219C54.7206 18.0276 53.7745 17.6304 52.4896 17.6304C51.2281 17.6304 50.1885 18.0743 49.3708 18.962C48.5765 19.8498 48.1794 21.0879 48.1794 22.6765V31.6475H43.6939ZM71.0061 32.068C69.5109 32.068 68.2844 31.8344 67.3266 31.3671C66.3688 30.8765 65.6562 30.2341 65.189 29.4398C64.7218 28.6455 64.4881 27.7694 64.4881 26.8116C64.4881 25.1996 65.1189 23.8914 66.3804 22.8868C67.642 21.8822 69.5343 21.38 72.0573 21.38H76.4727V20.9595C76.4727 19.768 76.134 18.8919 75.4565 18.3313C74.779 17.7706 73.938 17.4902 72.9334 17.4902C72.0223 17.4902 71.228 17.7122 70.5505 18.156C69.873 18.5766 69.4525 19.2073 69.289 20.0484H64.9086C65.0255 18.7868 65.446 17.6888 66.1702 16.7543C66.9178 15.8199 67.8756 15.1073 69.0437 14.6167C70.2118 14.1028 71.52 13.8458 72.9685 13.8458C75.4448 13.8458 77.3955 14.4649 78.8206 15.7031C80.2456 16.9412 80.9582 18.6934 80.9582 20.9595V31.6475H77.1385L76.718 28.8441C76.2041 29.7785 75.4798 30.5495 74.5454 31.1569C73.6343 31.7643 72.4545 32.068 71.0061 32.068ZM72.0223 28.5637C73.3072 28.5637 74.3001 28.1432 75.0009 27.3022C75.7251 26.4612 76.1807 25.4216 76.3676 24.1834H72.5479C71.3565 24.1834 70.5038 24.4053 69.9898 24.8492C69.4759 25.2697 69.2189 25.7953 69.2189 26.4261C69.2189 27.1036 69.4759 27.6292 69.9898 28.003C70.5038 28.3768 71.1813 28.5637 72.0223 28.5637ZM85.2386 39.3568V14.2663H89.2334L89.724 16.7543C90.2847 15.9834 91.0206 15.3059 91.9317 14.7219C92.8662 14.1378 94.0693 13.8458 95.5411 13.8458C97.1764 13.8458 98.6365 14.243 99.9214 15.0373C101.206 15.8316 102.223 16.9179 102.97 18.2962C103.718 19.6746 104.092 21.2398 104.092 22.9919C104.092 24.7441 103.718 26.3093 102.97 27.6876C102.223 29.0426 101.206 30.1173 99.9214 30.9116C98.6365 31.6825 97.1764 32.068 95.5411 32.068C94.2328 32.068 93.0881 31.8227 92.1069 31.3321C91.1257 30.8415 90.3314 30.1523 89.724 29.2646V39.3568H85.2386ZM94.595 28.1432C96.02 28.1432 97.1998 27.6643 98.1343 26.7065C99.0687 25.7486 99.536 24.5104 99.536 22.9919C99.536 21.4734 99.0687 20.2236 98.1343 19.2424C97.1998 18.2612 96.02 17.7706 94.595 17.7706C93.1465 17.7706 91.9551 18.2612 91.0206 19.2424C90.1095 20.2002 89.6539 21.4384 89.6539 22.9569C89.6539 24.4754 90.1095 25.7253 91.0206 26.7065C91.9551 27.6643 93.1465 28.1432 94.595 28.1432ZM110.516 11.568C109.699 11.568 109.021 11.3227 108.484 10.8321C107.97 10.3415 107.713 9.72246 107.713 8.97488C107.713 8.22731 107.97 7.6199 108.484 7.15266C109.021 6.66207 109.699 6.41677 110.516 6.41677C111.334 6.41677 112 6.66207 112.514 7.15266C113.051 7.6199 113.32 8.22731 113.32 8.97488C113.32 9.72246 113.051 10.3415 112.514 10.8321C112 11.3227 111.334 11.568 110.516 11.568ZM108.274 31.6475V14.2663H112.759V31.6475H108.274ZM124.8 26.4612C123.959 26.4612 123.176 26.3677 122.452 26.1808L121.155 27.4774C121.552 27.6876 122.09 27.8629 122.767 28.003C123.445 28.1432 124.543 28.2834 126.061 28.4235C128.374 28.6338 130.056 29.1828 131.107 30.0705C132.159 30.9583 132.684 32.1848 132.684 33.75C132.684 34.7779 132.404 35.7474 131.843 36.6586C131.283 37.593 130.418 38.3406 129.25 38.9013C128.082 39.4853 126.587 39.7774 124.765 39.7774C122.288 39.7774 120.291 39.3101 118.772 38.3756C117.254 37.4645 116.495 36.0862 116.495 34.2406C116.495 32.6754 117.254 31.3204 118.772 30.1757C118.305 29.9654 117.896 29.7435 117.546 29.5099C117.219 29.2762 116.927 29.0309 116.67 28.774V27.968L119.719 24.7441C118.364 23.5526 117.686 22.0224 117.686 20.1535C117.686 18.9854 117.966 17.9224 118.527 16.9646C119.111 16.0068 119.929 15.2475 120.98 14.6868C122.031 14.1261 123.305 13.8458 124.8 13.8458C125.781 13.8458 126.692 13.986 127.533 14.2663H134.121V16.9996L131.142 17.2099C131.61 18.0976 131.843 19.0788 131.843 20.1535C131.843 21.3216 131.563 22.3845 131.002 23.3424C130.442 24.3002 129.624 25.0594 128.549 25.6201C127.498 26.1808 126.248 26.4612 124.8 26.4612ZM124.8 23.027C125.711 23.027 126.458 22.7817 127.043 22.2911C127.65 21.8005 127.954 21.0996 127.954 20.1885C127.954 19.2774 127.65 18.5766 127.043 18.086C126.458 17.5954 125.711 17.3501 124.8 17.3501C123.842 17.3501 123.071 17.5954 122.487 18.086C121.903 18.5766 121.611 19.2774 121.611 20.1885C121.611 21.0996 121.903 21.8005 122.487 22.2911C123.071 22.7817 123.842 23.027 124.8 23.027ZM120.595 33.7851C120.595 34.6494 120.992 35.2919 121.786 35.7124C122.604 36.1563 123.597 36.3782 124.765 36.3782C125.886 36.3782 126.797 36.1446 127.498 35.6774C128.199 35.2335 128.549 34.6261 128.549 33.8551C128.549 33.2244 128.316 32.6987 127.848 32.2782C127.405 31.8577 126.505 31.6007 125.15 31.5073C124.192 31.4372 123.305 31.3321 122.487 31.1919C121.809 31.5657 121.319 31.9745 121.015 32.4184C120.735 32.8623 120.595 33.3178 120.595 33.7851ZM145.048 32.068C143.366 32.068 141.847 31.6825 140.492 30.9116C139.16 30.1406 138.097 29.0777 137.303 27.7227C136.532 26.3443 136.147 24.7557 136.147 22.9569C136.147 21.158 136.544 19.5811 137.338 18.2261C138.132 16.8478 139.195 15.7732 140.527 15.0022C141.882 14.2313 143.401 13.8458 145.083 13.8458C146.741 13.8458 148.236 14.2313 149.568 15.0022C150.923 15.7732 151.986 16.8478 152.757 18.2261C153.551 19.5811 153.948 21.158 153.948 22.9569C153.948 24.7557 153.551 26.3443 152.757 27.7227C151.986 29.0777 150.923 30.1406 149.568 30.9116C148.213 31.6825 146.706 32.068 145.048 32.068ZM145.048 28.1782C146.216 28.1782 147.232 27.746 148.096 26.8817C148.961 25.9939 149.393 24.6857 149.393 22.9569C149.393 21.2281 148.961 19.9315 148.096 19.0672C147.232 18.1794 146.227 17.7355 145.083 17.7355C143.891 17.7355 142.863 18.1794 141.999 19.0672C141.158 19.9315 140.737 21.2281 140.737 22.9569C140.737 24.6857 141.158 25.9939 141.999 26.8817C142.863 27.746 143.879 28.1782 145.048 28.1782Z" fill="#FDFDFD"/>
<path d="M43.6939 31.6475H43.1291V32.2122H43.6939V31.6475ZM43.6939 14.2663V13.7016H43.1291V14.2663H43.6939ZM47.6537 14.2663L48.2145 14.1996L48.1552 13.7016H47.6537V14.2663ZM48.0041 17.2099L47.4434 17.2767L47.6591 19.089L48.5046 17.4715L48.0041 17.2099ZM50.317 14.7569L50.0296 14.2707L50.0247 14.2736L50.317 14.7569ZM58.9374 15.8783L58.5133 16.2512L58.5133 16.2512L58.9374 15.8783ZM60.7246 31.6475V32.2122H61.2894V31.6475H60.7246ZM56.2392 31.6475H55.6744V32.2122H56.2392V31.6475ZM55.328 18.8219L55.7767 18.4788L55.7767 18.4788L55.328 18.8219ZM49.3708 18.962L48.9554 18.5794L48.9499 18.5855L49.3708 18.962ZM48.1794 31.6475V32.2122H48.7441V31.6475H48.1794ZM44.2586 31.6475V14.2663H43.1291V31.6475H44.2586ZM43.6939 14.8311H47.6537V13.7016H43.6939V14.8311ZM47.0929 14.3331L47.4434 17.2767L48.5649 17.1431L48.2145 14.1996L47.0929 14.3331ZM48.5046 17.4715C48.9935 16.5363 49.6919 15.7948 50.6092 15.2402L50.0247 14.2736C48.9329 14.9338 48.0894 15.8277 47.5036 16.9483L48.5046 17.4715ZM50.6043 15.2431C51.5325 14.6946 52.6332 14.4106 53.9263 14.4106V13.2811C52.4628 13.2811 51.1573 13.6044 50.0296 14.2707L50.6043 15.2431ZM53.9263 14.4106C55.9473 14.4106 57.4497 15.0416 58.5133 16.2512L59.3615 15.5054C58.0423 14.005 56.204 13.2811 53.9263 13.2811V14.4106ZM58.5133 16.2512C59.5808 17.4652 60.1599 19.2955 60.1599 21.8355H61.2894C61.2894 19.1425 60.677 17.0014 59.3615 15.5054L58.5133 16.2512ZM60.1599 21.8355V31.6475H61.2894V21.8355H60.1599ZM60.7246 31.0827H56.2392V32.2122H60.7246V31.0827ZM56.8039 31.6475V22.256H55.6744V31.6475H56.8039ZM56.8039 22.256C56.8039 20.6955 56.4886 19.4097 55.7767 18.4788L54.8794 19.1649C55.3824 19.8226 55.6744 20.8263 55.6744 22.256H56.8039ZM55.7767 18.4788C55.033 17.5063 53.8955 17.0657 52.4896 17.0657V18.1952C53.6535 18.1952 54.4083 18.5488 54.8794 19.1649L55.7767 18.4788ZM52.4896 17.0657C51.0783 17.0657 49.8853 17.5698 48.9554 18.5794L49.7862 19.3446C50.4916 18.5788 51.3778 18.1952 52.4896 18.1952V17.0657ZM48.9499 18.5855C48.0358 19.6072 47.6146 20.9961 47.6146 22.6765H48.7441C48.7441 21.1798 49.1172 20.0924 49.7917 19.3386L48.9499 18.5855ZM47.6146 22.6765V31.6475H48.7441V22.6765H47.6146ZM48.1794 31.0827H43.6939V32.2122H48.1794V31.0827ZM67.3266 31.3671L67.0691 31.8699L67.079 31.8747L67.3266 31.3671ZM65.189 29.4398L64.7022 29.7261L64.7022 29.7261L65.189 29.4398ZM66.3804 22.8868L66.7322 23.3286L66.7322 23.3286L66.3804 22.8868ZM76.4727 21.38V21.9447H77.0375V21.38H76.4727ZM75.4565 18.3313L75.8165 17.8962L75.8165 17.8962L75.4565 18.3313ZM70.5505 18.156L70.8484 18.636L70.86 18.6284L70.5505 18.156ZM69.289 20.0484V20.6131H69.7545L69.8433 20.1561L69.289 20.0484ZM64.9086 20.0484L64.3463 19.9963L64.2892 20.6131H64.9086V20.0484ZM66.1702 16.7543L65.7291 16.4015L65.7238 16.4084L66.1702 16.7543ZM69.0437 14.6167L69.2624 15.1375L69.2711 15.1337L69.0437 14.6167ZM78.8206 15.7031L78.4502 16.1294L78.4502 16.1294L78.8206 15.7031ZM80.9582 31.6475V32.2122H81.5229V31.6475H80.9582ZM77.1385 31.6475L76.58 31.7312L76.6522 32.2122H77.1385V31.6475ZM76.718 28.8441L77.2765 28.7603L77.0286 27.1075L76.2232 28.5719L76.718 28.8441ZM74.5454 31.1569L74.2376 30.6833L74.2321 30.687L74.5454 31.1569ZM75.0009 27.3022L74.5729 26.9336L74.5671 26.9406L75.0009 27.3022ZM76.3676 24.1834L76.926 24.2677L77.024 23.6186H76.3676V24.1834ZM69.9898 24.8492L70.3474 25.2863L70.3533 25.2815L70.359 25.2766L69.9898 24.8492ZM69.9898 28.003L70.322 27.5463L70.322 27.5463L69.9898 28.003ZM71.0061 31.5032C69.5643 31.5032 68.4303 31.2771 67.5742 30.8595L67.079 31.8747C68.1386 32.3916 69.4575 32.6327 71.0061 32.6327V31.5032ZM67.584 30.8645C66.7053 30.4144 66.08 29.8407 65.6758 29.1534L64.7022 29.7261C65.2324 30.6274 66.0322 31.3387 67.0691 31.8698L67.584 30.8645ZM65.6758 29.1534C65.2616 28.4494 65.0529 27.6729 65.0529 26.8116H63.9234C63.9234 27.866 64.1819 28.8415 64.7022 29.7261L65.6758 29.1534ZM65.0529 26.8116C65.0529 25.3717 65.6052 24.2261 66.7322 23.3286L66.0286 22.445C64.6326 23.5567 63.9234 25.0275 63.9234 26.8116H65.0529ZM66.7322 23.3286C67.8512 22.4376 69.5942 21.9447 72.0573 21.9447V20.8152C69.4744 20.8152 67.4328 21.3269 66.0286 22.445L66.7322 23.3286ZM72.0573 21.9447H76.4727V20.8152H72.0573V21.9447ZM77.0375 21.38V20.9595H75.908V21.38H77.0375ZM77.0375 20.9595C77.0375 19.663 76.6656 18.5988 75.8165 17.8962L75.0964 18.7663C75.6023 19.185 75.908 19.873 75.908 20.9595H77.0375ZM75.8165 17.8962C75.0235 17.2399 74.0496 16.9255 72.9334 16.9255V18.055C73.8263 18.055 74.5345 18.3013 75.0964 18.7663L75.8165 17.8962ZM72.9334 16.9255C71.9265 16.9255 71.0217 17.1722 70.241 17.6837L70.86 18.6284C71.4343 18.2522 72.1181 18.055 72.9334 18.055V16.9255ZM70.2527 17.6762C69.4309 18.1863 68.9256 18.9581 68.7346 19.9406L69.8433 20.1561C69.9794 19.4566 70.3152 18.9668 70.8483 18.6359L70.2527 17.6762ZM69.289 19.4836H64.9086V20.6131H69.289V19.4836ZM65.471 20.1004C65.5786 18.9379 65.9629 17.9437 66.6166 17.1003L65.7238 16.4084C64.929 17.4339 64.4723 18.6358 64.3463 19.9963L65.471 20.1004ZM66.6112 17.1071C67.2964 16.2507 68.176 15.5937 69.2624 15.1374L68.825 14.0961C67.5752 14.621 66.5392 15.3891 65.7292 16.4015L66.6112 17.1071ZM69.2711 15.1337C70.3585 14.6552 71.5878 14.4106 72.9685 14.4106V13.2811C71.4523 13.2811 70.0651 13.5503 68.8162 14.0998L69.2711 15.1337ZM72.9685 14.4106C75.3519 14.4106 77.1563 15.0052 78.4502 16.1294L79.191 15.2768C77.6347 13.9246 75.5377 13.2811 72.9685 13.2811V14.4106ZM78.4502 16.1294C79.7271 17.2388 80.3934 18.821 80.3934 20.9595H81.5229C81.5229 18.5657 80.7642 16.6437 79.191 15.2768L78.4502 16.1294ZM80.3934 20.9595V31.6475H81.5229V20.9595H80.3934ZM80.9582 31.0827H77.1385V32.2122H80.9582V31.0827ZM77.697 31.5637L77.2765 28.7603L76.1595 28.9278L76.58 31.7312L77.697 31.5637ZM76.2232 28.5719C75.7561 29.4211 75.0977 30.1243 74.2376 30.6834L74.8532 31.6304C75.862 30.9746 76.652 30.1359 77.2129 29.1162L76.2232 28.5719ZM74.2321 30.687C73.4394 31.2155 72.3784 31.5032 71.0061 31.5032V32.6327C72.5306 32.6327 73.8292 32.3131 74.8586 31.6268L74.2321 30.687ZM72.0223 29.1285C73.4425 29.1285 74.6075 28.6564 75.4348 27.6637L74.5671 26.9406C73.9926 27.63 73.1719 27.999 72.0223 27.999V29.1285ZM75.4289 27.6707C76.2311 26.7391 76.7253 25.5971 76.926 24.2677L75.8092 24.0991C75.636 25.246 75.2192 26.1832 74.573 26.9337L75.4289 27.6707ZM76.3676 23.6186H72.5479V24.7481H76.3676V23.6186ZM72.5479 23.6186C71.3135 23.6186 70.2905 23.8433 69.6207 24.4218L70.359 25.2766C70.7171 24.9673 71.3995 24.7481 72.5479 24.7481V23.6186ZM69.6322 24.4121C68.9951 24.9334 68.6541 25.6159 68.6541 26.4261H69.7836C69.7836 25.9748 69.9566 25.606 70.3474 25.2863L69.6322 24.4121ZM68.6541 26.4261C68.6541 27.2703 68.9866 27.9717 69.6577 28.4598L70.322 27.5463C69.9651 27.2867 69.7836 26.9369 69.7836 26.4261H68.6541ZM69.6577 28.4598C70.2951 28.9233 71.1002 29.1285 72.0223 29.1285V27.999C71.2623 27.999 70.7125 27.8303 70.322 27.5463L69.6577 28.4598ZM85.2386 39.3568H84.6738V39.9216H85.2386V39.3568ZM85.2386 14.2663V13.7016H84.6738V14.2663H85.2386ZM89.2334 14.2663L89.7875 14.1571L89.6977 13.7016H89.2334V14.2663ZM89.724 16.7543L89.1699 16.8636L89.4201 18.1324L90.1808 17.0865L89.724 16.7543ZM91.9317 14.7219L91.6324 14.2429L91.6269 14.2464L91.9317 14.7219ZM99.9214 15.0373L100.218 14.5569L100.218 14.5569L99.9214 15.0373ZM102.97 18.2962L102.474 18.5655L102.474 18.5655L102.97 18.2962ZM102.97 27.6876L103.465 27.9605L103.467 27.9569L102.97 27.6876ZM99.9214 30.9116L100.212 31.3959L100.218 31.3919L99.9214 30.9116ZM89.724 29.2646L90.1901 28.9457L89.1593 27.439V29.2646H89.724ZM89.724 39.3568V39.9216H90.2888V39.3568H89.724ZM98.1343 26.7065L98.5385 27.1008L98.5385 27.1008L98.1343 26.7065ZM98.1343 19.2424L98.5432 18.8529L98.1343 19.2424ZM91.0206 19.2424L90.6116 18.8529L90.6114 18.8531L91.0206 19.2424ZM91.0206 26.7065L90.6066 27.0909L90.6164 27.1008L91.0206 26.7065ZM85.8033 39.3568V14.2663H84.6738V39.3568H85.8033ZM85.2386 14.8311H89.2334V13.7016H85.2386V14.8311ZM88.6794 14.3756L89.1699 16.8636L90.2781 16.6451L89.7875 14.1571L88.6794 14.3756ZM90.1808 17.0865C90.6949 16.3795 91.3766 15.7486 92.2365 15.1973L91.6269 14.2464C90.6646 14.8633 89.8745 15.5873 89.2673 16.4222L90.1808 17.0865ZM92.231 15.2008C93.0504 14.6887 94.1406 14.4106 95.5411 14.4106V13.2811C93.998 13.2811 92.682 13.587 91.6324 14.243L92.231 15.2008ZM95.5411 14.4106C97.0805 14.4106 98.4362 14.783 99.6245 15.5176L100.218 14.5569C98.8369 13.7029 97.2723 13.2811 95.5411 13.2811V14.4106ZM99.6245 15.5176C100.822 16.2581 101.771 17.2703 102.474 18.5655L103.467 18.027C102.674 16.5655 101.59 15.405 100.218 14.5569L99.6245 15.5176ZM102.474 18.5655C103.171 19.8518 103.527 21.3226 103.527 22.9919H104.656C104.656 21.157 104.264 19.4973 103.467 18.027L102.474 18.5655ZM103.527 22.9919C103.527 24.6613 103.171 26.1321 102.474 27.4184L103.467 27.9569C104.264 26.4865 104.656 24.8269 104.656 22.9919H103.527ZM102.476 27.4148C101.774 28.687 100.825 29.6892 99.6245 30.4312L100.218 31.3919C101.588 30.5453 102.671 29.3983 103.465 27.9605L102.476 27.4148ZM99.6309 30.4273C98.4417 31.1408 97.0837 31.5032 95.5411 31.5032V32.6327C97.2691 32.6327 98.8314 32.2242 100.212 31.3958L99.6309 30.4273ZM95.5411 31.5032C94.3038 31.5032 93.2485 31.2715 92.3595 30.827L91.8544 31.8372C92.9277 32.3739 94.1619 32.6327 95.5411 32.6327V31.5032ZM92.3595 30.827C91.4624 30.3784 90.7422 29.7526 90.1901 28.9457L89.2579 29.5835C89.9207 30.552 90.7891 31.3046 91.8544 31.8372L92.3595 30.827ZM89.1593 29.2646V39.3568H90.2888V29.2646H89.1593ZM89.724 38.7921H85.2386V39.9216H89.724V38.7921ZM94.595 28.7079C96.1612 28.7079 97.4903 28.1752 98.5385 27.1008L97.73 26.3121C96.9093 27.1533 95.8788 27.5785 94.595 27.5785V28.7079ZM98.5385 27.1008C99.59 26.023 100.101 24.6363 100.101 22.9919H98.9712C98.9712 24.3846 98.5475 25.4742 97.73 26.3121L98.5385 27.1008ZM100.101 22.9919C100.101 21.3474 99.5901 19.9521 98.5432 18.8529L97.7253 19.6319C98.5474 20.4951 98.9712 21.5995 98.9712 22.9919H100.101ZM98.5432 18.8529C97.4961 17.7534 96.1656 17.2058 94.595 17.2058V18.3353C95.8744 18.3353 96.9035 18.7689 97.7253 19.6319L98.5432 18.8529ZM94.595 17.2058C93.0039 17.2058 91.6606 17.7514 90.6116 18.8529L91.4296 19.6319C92.2495 18.7709 93.2892 18.3353 94.595 18.3353V17.2058ZM90.6114 18.8531C89.5855 19.9316 89.0892 21.3167 89.0892 22.9569H90.2187C90.2187 21.5601 90.6335 20.4688 91.4298 19.6316L90.6114 18.8531ZM89.0892 22.9569C89.0892 24.5974 89.5855 25.9909 90.6068 27.0907L91.4344 26.3222C90.6335 25.4596 90.2187 24.3534 90.2187 22.9569H89.0892ZM90.6164 27.1008C91.6664 28.1772 93.0082 28.7079 94.595 28.7079V27.5785C93.2848 27.5785 92.2437 27.1514 91.4248 26.3121L90.6164 27.1008ZM108.484 10.8321L108.094 11.2408L108.103 11.2492L108.484 10.8321ZM108.484 7.15266L108.864 7.57054L108.865 7.56972L108.484 7.15266ZM112.514 7.15266L112.124 7.56118L112.133 7.57023L112.143 7.57883L112.514 7.15266ZM112.514 10.8321L112.133 10.415L112.124 10.4236L112.514 10.8321ZM108.274 31.6475H107.709V32.2122H108.274V31.6475ZM108.274 14.2663V13.7016H107.709V14.2663H108.274ZM112.759 14.2663H113.324V13.7016H112.759V14.2663ZM112.759 31.6475V32.2122H113.324V31.6475H112.759ZM110.516 11.0033C109.821 11.0033 109.285 10.7987 108.865 10.4151L108.103 11.2492C108.758 11.8468 109.577 12.1328 110.516 12.1328V11.0033ZM108.874 10.4236C108.478 10.0457 108.278 9.57714 108.278 8.97488H107.148C107.148 9.86777 107.462 10.6374 108.094 11.2407L108.874 10.4236ZM108.278 8.97488C108.278 8.3728 108.477 7.92191 108.864 7.57054L108.104 6.73478C107.463 7.31789 107.148 8.08182 107.148 8.97488H108.278ZM108.865 7.56972C109.285 7.18609 109.821 6.98152 110.516 6.98152V5.85202C109.577 5.85202 108.758 6.13805 108.103 6.7356L108.865 7.56972ZM110.516 6.98152C111.212 6.98152 111.731 7.18604 112.124 7.56118L112.904 6.74415C112.269 6.1381 111.456 5.85202 110.516 5.85202V6.98152ZM112.143 7.57883C112.55 7.93286 112.755 8.38148 112.755 8.97488H113.885C113.885 8.07313 113.552 7.30694 112.884 6.7265L112.143 7.57883ZM112.755 8.97488C112.755 9.56872 112.55 10.0348 112.133 10.4151L112.895 11.2492C113.553 10.6483 113.885 9.8762 113.885 8.97488H112.755ZM112.124 10.4236C111.731 10.7988 111.212 11.0033 110.516 11.0033V12.1328C111.456 12.1328 112.269 11.8467 112.904 11.2407L112.124 10.4236ZM108.838 31.6475V14.2663H107.709V31.6475H108.838ZM108.274 14.8311H112.759V13.7016H108.274V14.8311ZM112.194 14.2663V31.6475H113.324V14.2663H112.194ZM112.759 31.0827H108.274V32.2122H112.759V31.0827ZM122.452 26.1808L122.593 25.634L122.281 25.5534L122.053 25.7815L122.452 26.1808ZM121.155 27.4774L120.756 27.0781L120.215 27.6187L120.891 27.9765L121.155 27.4774ZM122.767 28.003L122.653 28.5561L122.653 28.5561L122.767 28.003ZM126.061 28.4235L126.009 28.9859L126.01 28.986L126.061 28.4235ZM131.107 30.0705L130.743 30.502L131.107 30.0705ZM131.843 36.6586L131.362 36.3626L131.359 36.368L131.843 36.6586ZM129.25 38.9013L129.006 38.3921L128.998 38.3962L129.25 38.9013ZM118.772 38.3756L119.068 37.8946L119.063 37.8914L118.772 38.3756ZM118.772 30.1757L119.112 30.6266L119.874 30.0522L119.004 29.6607L118.772 30.1757ZM117.546 29.5099L117.218 29.9694L117.225 29.9747L117.233 29.9798L117.546 29.5099ZM116.67 28.774H116.105V29.0079L116.271 29.1733L116.67 28.774ZM116.67 27.968L116.26 27.58L116.105 27.7432V27.968H116.67ZM119.719 24.7441L120.129 25.1321L120.531 24.7066L120.092 24.32L119.719 24.7441ZM118.527 16.9646L118.045 16.6705L118.04 16.6793L118.527 16.9646ZM120.98 14.6868L120.714 14.1885L120.714 14.1885L120.98 14.6868ZM127.533 14.2663L127.355 14.8021L127.441 14.8311H127.533V14.2663ZM134.121 14.2663H134.686V13.7016H134.121V14.2663ZM134.121 16.9996L134.161 17.563L134.686 17.5259V16.9996H134.121ZM131.142 17.2099L131.103 16.6466L130.24 16.7075L130.643 17.4729L131.142 17.2099ZM131.002 23.3424L130.515 23.0571L131.002 23.3424ZM128.549 25.6201L128.288 25.1194L128.284 25.1218L128.549 25.6201ZM127.043 22.2911L126.688 21.8517L126.679 21.8586L127.043 22.2911ZM127.043 18.086L126.679 18.5185L126.688 18.5253L127.043 18.086ZM122.487 18.086L122.124 17.6535L122.124 17.6535L122.487 18.086ZM122.487 22.2911L122.85 21.8586L122.85 21.8586L122.487 22.2911ZM121.786 35.7124L122.056 35.216L122.05 35.2133L121.786 35.7124ZM127.498 35.6774L127.196 35.2001L127.185 35.2075L127.498 35.6774ZM127.848 32.2782L127.46 32.6882L127.465 32.6932L127.471 32.698L127.848 32.2782ZM125.15 31.5073L125.109 32.0705L125.111 32.0707L125.15 31.5073ZM122.487 31.1919L122.582 30.6353L122.387 30.6018L122.214 30.6974L122.487 31.1919ZM121.015 32.4184L120.549 32.0995L120.543 32.1081L120.538 32.1168L121.015 32.4184ZM124.8 25.8964C124.001 25.8964 123.266 25.8076 122.593 25.634L122.311 26.7276C123.086 26.9278 123.917 27.0259 124.8 27.0259V25.8964ZM122.053 25.7815L120.756 27.0781L121.555 27.8767L122.851 26.5801L122.053 25.7815ZM120.891 27.9765C121.354 28.2213 121.948 28.4102 122.653 28.5561L122.882 27.45C122.232 27.3155 121.751 27.154 121.42 26.9783L120.891 27.9765ZM122.653 28.5561C123.364 28.7031 124.489 28.8455 126.009 28.9859L126.113 27.8612C124.597 27.7212 123.526 27.5833 122.882 27.45L122.653 28.5561ZM126.01 28.986C128.279 29.1922 129.823 29.7247 130.743 30.502L131.472 29.6391C130.29 28.6409 128.469 28.0754 126.112 27.8611L126.01 28.986ZM130.743 30.502C131.649 31.267 132.12 32.3255 132.12 33.75H133.249C133.249 32.0441 132.669 30.6496 131.472 29.6391L130.743 30.502ZM132.12 33.75C132.12 34.669 131.871 35.5367 131.362 36.3626L132.324 36.9545C132.937 35.9582 133.249 34.8868 133.249 33.75H132.12ZM131.359 36.368C130.865 37.191 130.093 37.8701 129.006 38.3922L129.495 39.4104C130.743 38.8111 131.7 37.995 132.328 36.9491L131.359 36.368ZM128.998 38.3962C127.933 38.9286 126.532 39.2126 124.765 39.2126V40.3421C126.642 40.3421 128.232 40.042 129.503 39.4064L128.998 38.3962ZM124.765 39.2126C122.354 39.2126 120.47 38.757 119.068 37.8947L118.476 38.8566C120.112 39.8632 122.223 40.3421 124.765 40.3421V39.2126ZM119.063 37.8914C117.723 37.0875 117.059 35.898 117.059 34.2406H115.93C115.93 36.2743 116.785 37.8416 118.482 38.8599L119.063 37.8914ZM117.059 34.2406C117.059 32.8913 117.701 31.6903 119.112 30.6266L118.432 29.7247C116.806 30.9505 115.93 32.4594 115.93 34.2406H117.059ZM119.004 29.6607C118.559 29.4605 118.179 29.2531 117.859 29.04L117.233 29.9798C117.614 30.2339 118.051 30.4703 118.541 30.6907L119.004 29.6607ZM117.874 29.0503C117.57 28.8329 117.302 28.6074 117.069 28.3746L116.271 29.1733C116.552 29.4544 116.868 29.7196 117.218 29.9694L117.874 29.0503ZM117.235 28.774V27.968H116.105V28.774H117.235ZM117.08 28.356L120.129 25.1321L119.308 24.356L116.26 27.58L117.08 28.356ZM120.092 24.32C118.863 23.24 118.251 21.8667 118.251 20.1535H117.121C117.121 22.1782 117.864 23.8652 119.346 25.1682L120.092 24.32ZM118.251 20.1535C118.251 19.0802 118.507 18.1166 119.015 17.2499L118.04 16.6793C117.426 17.7283 117.121 18.8906 117.121 20.1535H118.251ZM119.009 17.2586C119.538 16.3924 120.278 15.7014 121.246 15.1851L120.714 14.1885C119.58 14.7937 118.685 15.6211 118.045 16.6706L119.009 17.2586ZM121.246 15.1851C122.197 14.6778 123.374 14.4106 124.8 14.4106V13.2811C123.235 13.2811 121.866 13.5745 120.714 14.1885L121.246 15.1851ZM124.8 14.4106C125.727 14.4106 126.577 14.5429 127.355 14.8021L127.712 13.7306C126.807 13.4291 125.835 13.2811 124.8 13.2811V14.4106ZM127.533 14.8311H134.121V13.7016H127.533V14.8311ZM133.556 14.2663V16.9996H134.686V14.2663H133.556ZM134.081 16.4363L131.103 16.6466L131.182 17.7732L134.161 17.563L134.081 16.4363ZM130.643 17.4729C131.064 18.2738 131.279 19.1638 131.279 20.1535H132.408C132.408 18.9939 132.155 17.9215 131.642 16.9469L130.643 17.4729ZM131.279 20.1535C131.279 21.2268 131.022 22.1904 130.515 23.0571L131.49 23.6277C132.104 22.5787 132.408 21.4164 132.408 20.1535H131.279ZM130.515 23.0571C130.013 23.9149 129.278 24.6032 128.288 25.1194L128.811 26.1208C129.97 25.5157 130.87 24.6855 131.49 23.6277L130.515 23.0571ZM128.284 25.1218C127.33 25.6304 126.175 25.8964 124.8 25.8964V27.0259C126.321 27.0259 127.666 26.7312 128.815 26.1184L128.284 25.1218ZM124.8 23.5917C125.817 23.5917 126.701 23.3155 127.406 22.7235L126.679 21.8586C126.216 22.2479 125.605 22.4622 124.8 22.4622V23.5917ZM127.397 22.7304C128.16 22.1141 128.518 21.2384 128.518 20.1885H127.389C127.389 20.9609 127.139 21.4869 126.688 21.8517L127.397 22.7304ZM128.518 20.1885C128.518 19.1386 128.16 18.263 127.397 17.6466L126.688 18.5253C127.139 18.8901 127.389 19.4162 127.389 20.1885H128.518ZM127.406 17.6535C126.701 17.0616 125.817 16.7853 124.8 16.7853V17.9148C125.605 17.9148 126.216 18.1292 126.679 18.5184L127.406 17.6535ZM124.8 16.7853C123.744 16.7853 122.833 17.0574 122.124 17.6535L122.85 18.5184C123.309 18.1333 123.94 17.9148 124.8 17.9148V16.7853ZM122.124 17.6535C121.387 18.2725 121.046 19.1464 121.046 20.1885H122.176C122.176 19.4084 122.419 18.8806 122.85 18.5184L122.124 17.6535ZM121.046 20.1885C121.046 21.2307 121.387 22.1045 122.124 22.7235L122.85 21.8586C122.419 21.4964 122.176 20.9686 122.176 20.1885H121.046ZM122.124 22.7235C122.833 23.3196 123.744 23.5917 124.8 23.5917V22.4622C123.94 22.4622 123.309 22.2437 122.85 21.8586L122.124 22.7235ZM120.03 33.7851C120.03 34.3067 120.151 34.7894 120.412 35.2121C120.673 35.6337 121.053 35.9633 121.522 36.2115L122.05 35.2133C121.725 35.041 121.509 34.8391 121.373 34.6182C121.237 34.3985 121.159 34.1278 121.159 33.7851H120.03ZM121.517 36.2087C122.436 36.7076 123.526 36.943 124.765 36.943V35.8135C123.667 35.8135 122.772 35.605 122.056 35.2161L121.517 36.2087ZM124.765 36.943C125.961 36.943 126.992 36.6938 127.811 36.1473L127.185 35.2075C126.603 35.5954 125.811 35.8135 124.765 35.8135V36.943ZM127.8 36.1545C128.65 35.6165 129.114 34.8366 129.114 33.8551H127.985C127.985 34.4156 127.748 34.8505 127.196 35.2003L127.8 36.1545ZM129.114 33.8551C129.114 33.0649 128.813 32.3865 128.226 31.8585L127.471 32.698C127.818 33.011 127.985 33.3838 127.985 33.8551H129.114ZM128.237 31.8682C127.923 31.5711 127.491 31.3685 126.996 31.2271C126.496 31.0841 125.89 30.9922 125.189 30.9439L125.111 32.0707C125.765 32.1158 126.287 32.1991 126.686 32.3131C127.09 32.4287 127.33 32.5648 127.46 32.6882L128.237 31.8682ZM125.191 30.944C124.249 30.8751 123.38 30.7719 122.582 30.6353L122.392 31.7485C123.23 31.8922 124.136 31.9993 125.109 32.0705L125.191 30.944ZM122.214 30.6974C121.491 31.0964 120.92 31.558 120.549 32.0995L121.481 32.7373C121.718 32.3911 122.128 32.035 122.76 31.6864L122.214 30.6974ZM120.538 32.1168C120.208 32.6395 120.03 33.1983 120.03 33.7851H121.159C121.159 33.4374 121.262 33.0851 121.493 32.72L120.538 32.1168ZM140.492 30.9116L140.209 31.4003L140.213 31.4024L140.492 30.9116ZM137.303 27.7227L136.81 27.9984L136.816 28.0083L137.303 27.7227ZM137.338 18.2261L137.825 18.5117L137.828 18.5081L137.338 18.2261ZM140.527 15.0022L140.248 14.5113L140.244 14.5135L140.527 15.0022ZM149.568 15.0022L149.285 15.491L149.289 15.4931L149.568 15.0022ZM152.757 18.2261L152.264 18.5019L152.27 18.5117L152.757 18.2261ZM152.757 27.7227L152.268 27.4407L152.266 27.4434L152.757 27.7227ZM149.568 30.9116L149.289 30.4207L149.289 30.4207L149.568 30.9116ZM148.096 26.8817L148.496 27.281L148.501 27.2756L148.096 26.8817ZM148.096 19.0672L147.692 19.4612L147.697 19.4665L148.096 19.0672ZM141.999 19.0672L141.594 18.6732L141.594 18.6733L141.999 19.0672ZM141.999 26.8817L141.589 27.2701L141.594 27.2756L141.6 27.281L141.999 26.8817ZM145.048 31.5032C143.455 31.5032 142.035 31.1394 140.771 30.4207L140.213 31.4024C141.66 32.2256 143.276 32.6327 145.048 32.6327V31.5032ZM140.775 30.4228C139.53 29.7019 138.536 28.7097 137.79 27.4371L136.816 28.0083C137.659 29.4457 138.791 30.5794 140.209 31.4003L140.775 30.4228ZM137.796 27.447C137.078 26.164 136.711 24.6728 136.711 22.9569H135.582C135.582 24.8387 135.986 26.5247 136.81 27.9984L137.796 27.447ZM136.711 22.9569C136.711 21.2436 137.089 19.7681 137.825 18.5117L136.851 17.9405C135.999 19.3941 135.582 21.0725 135.582 22.9569H136.711ZM137.828 18.5081C138.574 17.2126 139.567 16.2105 140.81 15.491L140.244 14.5135C138.824 15.3358 137.691 16.483 136.849 17.9442L137.828 18.5081ZM140.806 15.4931C142.07 14.7744 143.491 14.4106 145.083 14.4106V13.2811C143.311 13.2811 141.695 13.6882 140.248 14.5114L140.806 15.4931ZM145.083 14.4106C146.65 14.4106 148.046 14.7737 149.285 15.491L149.851 14.5135C148.427 13.6889 146.833 13.2811 145.083 13.2811V14.4106ZM149.289 15.4931C150.553 16.2124 151.543 17.2121 152.264 18.5018L153.25 17.9505C152.429 16.4835 151.293 15.3339 149.847 14.5114L149.289 15.4931ZM152.27 18.5117C153.006 19.7681 153.384 21.2436 153.384 22.9569H154.513C154.513 21.0725 154.096 19.3941 153.244 17.9405L152.27 18.5117ZM153.384 22.9569C153.384 24.67 153.006 26.1589 152.268 27.4407L153.246 28.0047C154.096 26.5298 154.513 24.8415 154.513 22.9569H153.384ZM152.266 27.4434C151.545 28.7101 150.556 29.7 149.289 30.4207L149.847 31.4024C151.291 30.5813 152.427 29.4452 153.248 28.002L152.266 27.4434ZM149.289 30.4207C148.024 31.1401 146.615 31.5032 145.048 31.5032V32.6327C146.798 32.6327 148.402 32.2249 149.847 31.4024L149.289 30.4207ZM145.048 28.743C146.373 28.743 147.531 28.2458 148.496 27.281L147.697 26.4823C146.933 27.2463 146.058 27.6135 145.048 27.6135V28.743ZM148.501 27.2756C149.503 26.2467 149.958 24.774 149.958 22.9569H148.828C148.828 24.5974 148.419 25.7411 147.692 26.4877L148.501 27.2756ZM149.958 22.9569C149.958 21.1411 149.503 19.6755 148.496 18.6678L147.697 19.4665C148.418 20.1876 148.828 21.3152 148.828 22.9569H149.958ZM148.501 18.6732C147.54 17.6862 146.393 17.1708 145.083 17.1708V18.3003C146.062 18.3003 146.924 18.6726 147.692 19.4611L148.501 18.6732ZM145.083 17.1708C143.732 17.1708 142.56 17.6811 141.594 18.6732L142.403 19.4611C143.166 18.6777 144.05 18.3003 145.083 18.3003V17.1708ZM141.594 18.6733C140.613 19.6814 140.173 21.1449 140.173 22.9569H141.302C141.302 21.3114 141.702 20.1816 142.404 19.461L141.594 18.6733ZM140.173 22.9569C140.173 24.7702 140.614 26.2408 141.589 27.2701L142.409 26.4933C141.702 25.7471 141.302 24.6011 141.302 22.9569H140.173ZM141.6 27.281C142.564 28.2458 143.722 28.743 145.048 28.743V27.6135C144.037 27.6135 143.162 27.2463 142.398 26.4823L141.6 27.281Z" fill="#FDFDFD"/>
<rect width="26.0596" height="38.9676" rx="3.89676" fill="url(#paint0_linear_593_9311)"/>
<g filter="url(#filter0_d_593_9311)">
<path d="M8.76758 15.3434C8.76758 13.9984 9.85798 12.908 11.2031 12.908H32.6353C33.9803 12.908 35.0707 13.9984 35.0707 15.3434V36.5321C35.0707 37.8772 33.9803 38.9676 32.6352 38.9676H8.76758V15.3434Z" fill="#037C66"/>
</g>
<defs>
<filter id="filter0_d_593_9311" x="3.65308" y="7.79346" width="31.4177" height="31.1741" filterUnits="userSpaceOnUse" color-interpolation-filters="sRGB">
<feFlood flood-opacity="0" result="BackgroundImageFix"/>
<feColorMatrix in="SourceAlpha" type="matrix" values="0 0 0 0 0 0 0 0 0 0 0 0 0 0 0 0 0 0 127 0" result="hardAlpha"/>
<feMorphology radius="1.70483" operator="erode" in="SourceAlpha" result="effect1_dropShadow_593_9311"/>
<feOffset dx="-2.67902" dy="-2.67902"/>
<feGaussianBlur stdDeviation="2.07016"/>
<feComposite in2="hardAlpha" operator="out"/>
<feColorMatrix type="matrix" values="0 0 0 0 0 0 0 0 0 0 0 0 0 0 0 0 0 0 0.17 0"/>
<feBlend mode="normal" in2="BackgroundImageFix" result="effect1_dropShadow_593_9311"/>
<feBlend mode="normal" in="SourceGraphic" in2="effect1_dropShadow_593_9311" result="shape"/>
</filter>
<linearGradient id="paint0_linear_593_9311" x1="0" y1="0" x2="50.6142" y2="24.8053" gradientUnits="userSpaceOnUse">
<stop stop-color="#29AE96"/>
<stop offset="1" stop-color="#5AB8A7"/>
</linearGradient>
</defs>
</svg>
