<svg width="25" height="26" viewBox="0 0 25 26" fill="none" xmlns="http://www.w3.org/2000/svg">
<g clip-path="url(#clip0_411_8974)">
<path d="M23.9583 23.4167H3.125C2.84873 23.4167 2.58378 23.3069 2.38843 23.1116C2.19308 22.9162 2.08333 22.6513 2.08333 22.375V1.54167C2.08333 1.2654 1.97359 1.00045 1.77824 0.805097C1.58289 0.609747 1.31793 0.5 1.04167 0.5C0.765399 0.5 0.500448 0.609747 0.305097 0.805097C0.109747 1.00045 0 1.2654 0 1.54167L0 22.375C0 23.2038 0.32924 23.9987 0.915291 24.5847C1.50134 25.1708 2.2962 25.5 3.125 25.5H23.9583C24.2346 25.5 24.4996 25.3903 24.6949 25.1949C24.8903 24.9996 25 24.7346 25 24.4583C25 24.1821 24.8903 23.9171 24.6949 23.7218C24.4996 23.5264 24.2346 23.4167 23.9583 23.4167Z" fill="#A6ADBA"/>
<path d="M15.625 21.3333C15.9012 21.3333 16.1662 21.2236 16.3615 21.0282C16.5569 20.8329 16.6666 20.5679 16.6666 20.2917V13C16.6666 12.7237 16.5569 12.4588 16.3615 12.2634C16.1662 12.0681 15.9012 11.9583 15.625 11.9583C15.3487 11.9583 15.0838 12.0681 14.8884 12.2634C14.6931 12.4588 14.5833 12.7237 14.5833 13V20.2917C14.5833 20.5679 14.6931 20.8329 14.8884 21.0282C15.0838 21.2236 15.3487 21.3333 15.625 21.3333Z" fill="#A6ADBA"/>
<path d="M7.29167 21.3333C7.56793 21.3333 7.83289 21.2236 8.02824 21.0282C8.22359 20.8329 8.33333 20.5679 8.33333 20.2917V13C8.33333 12.7237 8.22359 12.4588 8.02824 12.2634C7.83289 12.0681 7.56793 11.9583 7.29167 11.9583C7.0154 11.9583 6.75045 12.0681 6.5551 12.2634C6.35975 12.4588 6.25 12.7237 6.25 13V20.2917C6.25 20.5679 6.35975 20.8329 6.5551 21.0282C6.75045 21.2236 7.0154 21.3333 7.29167 21.3333Z" fill="#A6ADBA"/>
<path d="M19.7917 21.3333C20.0679 21.3333 20.3329 21.2236 20.5282 21.0282C20.7236 20.8329 20.8333 20.5679 20.8333 20.2917V7.79167C20.8333 7.5154 20.7236 7.25045 20.5282 7.0551C20.3329 6.85975 20.0679 6.75 19.7917 6.75C19.5154 6.75 19.2504 6.85975 19.0551 7.0551C18.8597 7.25045 18.75 7.5154 18.75 7.79167V20.2917C18.75 20.5679 18.8597 20.8329 19.0551 21.0282C19.2504 21.2236 19.5154 21.3333 19.7917 21.3333Z" fill="#A6ADBA"/>
<path d="M11.4584 21.3333C11.7346 21.3333 11.9996 21.2236 12.1949 21.0282C12.3903 20.8329 12.5 20.5679 12.5 20.2917V7.79167C12.5 7.5154 12.3903 7.25045 12.1949 7.0551C11.9996 6.85975 11.7346 6.75 11.4584 6.75C11.1821 6.75 10.9171 6.85975 10.7218 7.0551C10.5264 7.25045 10.4167 7.5154 10.4167 7.79167V20.2917C10.4167 20.5679 10.5264 20.8329 10.7218 21.0282C10.9171 21.2236 11.1821 21.3333 11.4584 21.3333Z" fill="#A6ADBA"/>
</g>
<defs>
<clipPath id="clip0_411_8974">
<rect width="25" height="25" fill="white" transform="translate(0 0.5)"/>
</clipPath>
</defs>
</svg>
