<svg width="25" height="26" viewBox="0 0 25 26" fill="none" xmlns="http://www.w3.org/2000/svg">
<g clip-path="url(#clip0_411_8982)">
<path d="M1.04167 5.44791H3.89167C4.11525 6.27055 4.60331 6.99676 5.28055 7.51451C5.95779 8.03225 6.78658 8.31276 7.63906 8.31276C8.49154 8.31276 9.32033 8.03225 9.99758 7.51451C10.6748 6.99676 11.1629 6.27055 11.3865 5.44791H23.9583C24.2346 5.44791 24.4996 5.33816 24.6949 5.14281C24.8903 4.94746 25 4.68251 25 4.40624C25 4.12998 24.8903 3.86503 24.6949 3.66968C24.4996 3.47432 24.2346 3.36458 23.9583 3.36458H11.3865C11.1629 2.54194 10.6748 1.81573 9.99758 1.29798C9.32033 0.780237 8.49154 0.499725 7.63906 0.499725C6.78658 0.499725 5.95779 0.780237 5.28055 1.29798C4.60331 1.81573 4.11525 2.54194 3.89167 3.36458H1.04167C0.765399 3.36458 0.500448 3.47432 0.305097 3.66968C0.109747 3.86503 0 4.12998 0 4.40624C0 4.68251 0.109747 4.94746 0.305097 5.14281C0.500448 5.33816 0.765399 5.44791 1.04167 5.44791ZM7.63854 2.58333C7.99908 2.58333 8.35152 2.69024 8.6513 2.89055C8.95108 3.09085 9.18472 3.37555 9.3227 3.70864C9.46067 4.04174 9.49677 4.40827 9.42643 4.76188C9.35609 5.11549 9.18248 5.4403 8.92754 5.69524C8.6726 5.95018 8.34779 6.1238 7.99417 6.19413C7.64056 6.26447 7.27404 6.22837 6.94094 6.0904C6.60785 5.95243 6.32315 5.71878 6.12284 5.419C5.92254 5.11923 5.81563 4.76678 5.81563 4.40624C5.81618 3.92295 6.00841 3.4596 6.35015 3.11786C6.6919 2.77611 7.15524 2.58388 7.63854 2.58333Z" fill="#A6ADBA"/>
<path d="M23.9583 11.9583H21.1083C20.8851 11.1355 20.3973 10.409 19.7201 9.89107C19.0429 9.37311 18.214 9.09247 17.3615 9.09247C16.5089 9.09247 15.68 9.37311 15.0028 9.89107C14.3257 10.409 13.8378 11.1355 13.6146 11.9583H1.04167C0.765399 11.9583 0.500448 12.0681 0.305097 12.2634C0.109747 12.4588 0 12.7237 0 13C0 13.2763 0.109747 13.5412 0.305097 13.7366C0.500448 13.9319 0.765399 14.0417 1.04167 14.0417H13.6146C13.8378 14.8645 14.3257 15.591 15.0028 16.1089C15.68 16.6269 16.5089 16.9075 17.3615 16.9075C18.214 16.9075 19.0429 16.6269 19.7201 16.1089C20.3973 15.591 20.8851 14.8645 21.1083 14.0417H23.9583C24.2346 14.0417 24.4996 13.9319 24.6949 13.7366C24.8903 13.5412 25 13.2763 25 13C25 12.7237 24.8903 12.4588 24.6949 12.2634C24.4996 12.0681 24.2346 11.9583 23.9583 11.9583ZM17.3615 14.8229C17.0009 14.8229 16.6485 14.716 16.3487 14.5157C16.0489 14.3154 15.8153 14.0307 15.6773 13.6976C15.5393 13.3645 15.5032 12.998 15.5736 12.6444C15.6439 12.2908 15.8175 11.9659 16.0725 11.711C16.3274 11.4561 16.6522 11.2825 17.0058 11.2121C17.3594 11.1418 17.726 11.1779 18.0591 11.3158C18.3922 11.4538 18.6769 11.6875 18.8772 11.9872C19.0775 12.287 19.1844 12.6395 19.1844 13C19.1838 13.4833 18.9916 13.9466 18.6498 14.2884C18.3081 14.6301 17.8448 14.8224 17.3615 14.8229Z" fill="#A6ADBA"/>
<path d="M23.9583 20.5521H11.3865C11.1629 19.7294 10.6748 19.0032 9.99758 18.4855C9.32033 17.9677 8.49154 17.6872 7.63906 17.6872C6.78658 17.6872 5.95779 17.9677 5.28055 18.4855C4.60331 19.0032 4.11525 19.7294 3.89167 20.5521H1.04167C0.765399 20.5521 0.500448 20.6618 0.305097 20.8572C0.109747 21.0525 0 21.3175 0 21.5937C0 21.87 0.109747 22.135 0.305097 22.3303C0.500448 22.5257 0.765399 22.6354 1.04167 22.6354H3.89167C4.11525 23.458 4.60331 24.1843 5.28055 24.702C5.95779 25.2198 6.78658 25.5003 7.63906 25.5003C8.49154 25.5003 9.32033 25.2198 9.99758 24.702C10.6748 24.1843 11.1629 23.458 11.3865 22.6354H23.9583C24.2346 22.6354 24.4996 22.5257 24.6949 22.3303C24.8903 22.135 25 21.87 25 21.5937C25 21.3175 24.8903 21.0525 24.6949 20.8572C24.4996 20.6618 24.2346 20.5521 23.9583 20.5521ZM7.63854 23.4167C7.278 23.4167 6.92556 23.3098 6.62578 23.1094C6.32601 22.9091 6.09236 22.6244 5.95439 22.2913C5.81641 21.9583 5.78031 21.5917 5.85065 21.2381C5.92099 20.8845 6.0946 20.5597 6.34954 20.3047C6.60448 20.0498 6.9293 19.8762 7.28291 19.8059C7.63652 19.7355 8.00305 19.7716 8.33614 19.9096C8.66924 20.0476 8.95394 20.2812 9.15424 20.581C9.35455 20.8808 9.46146 21.2332 9.46146 21.5937C9.46063 22.077 9.26831 22.5401 8.92663 22.8818C8.58494 23.2235 8.12176 23.4158 7.63854 23.4167Z" fill="#A6ADBA"/>
</g>
<defs>
<clipPath id="clip0_411_8982">
<rect width="25" height="25" fill="white" transform="translate(0 0.5)"/>
</clipPath>
</defs>
</svg>
