<svg width="25" height="26" viewBox="0 0 25 26" fill="none" xmlns="http://www.w3.org/2000/svg">
<g clip-path="url(#clip0_411_8969)">
<path d="M23.9583 11.9583C23.6821 11.9583 23.4171 12.0681 23.2218 12.2634C23.0264 12.4588 22.9167 12.7237 22.9167 13C22.9251 15.4222 22.0921 17.7721 20.5599 19.6481C19.0278 21.5241 16.8916 22.8097 14.5166 23.2852C12.1415 23.7607 9.67506 23.3966 7.53875 22.2551C5.40244 21.1135 3.72891 19.2655 2.80422 17.0267C1.87952 14.788 1.76107 12.2976 2.4691 9.98126C3.17713 7.66488 4.66769 5.66631 6.68601 4.32716C8.70432 2.98801 11.1251 2.39141 13.5345 2.63934C15.944 2.88728 18.1925 3.96435 19.8958 5.68646C19.8616 5.6958 19.8268 5.70311 19.7917 5.70833H16.6667C16.3904 5.70833 16.1255 5.81808 15.9301 6.01343C15.7348 6.20878 15.625 6.47373 15.625 6.75C15.625 7.02627 15.7348 7.29122 15.9301 7.48657C16.1255 7.68192 16.3904 7.79167 16.6667 7.79167H19.7917C20.6205 7.79167 21.4153 7.46243 22.0014 6.87638C22.5874 6.29032 22.9167 5.49547 22.9167 4.66667V1.54167C22.9167 1.2654 22.8069 1.00045 22.6116 0.805097C22.4162 0.609747 22.1513 0.5 21.875 0.5C21.5987 0.5 21.3338 0.609747 21.1384 0.805097C20.9431 1.00045 20.8333 1.2654 20.8333 1.54167V3.69271C18.7006 1.78597 15.9781 0.668923 13.1207 0.528232C10.2633 0.38754 7.44423 1.23173 5.13447 2.91972C2.82472 4.60772 1.16422 7.03727 0.43046 9.8024C-0.3033 12.5675 -0.065875 15.5007 1.10306 18.1118C2.272 20.7229 4.30163 22.8538 6.85281 24.1483C9.40399 25.4429 12.3222 25.8226 15.1197 25.2242C17.9172 24.6258 20.4247 23.0854 22.223 20.8605C24.0213 18.6355 25.0016 15.8608 25 13C25 12.7237 24.8903 12.4588 24.6949 12.2634C24.4996 12.0681 24.2346 11.9583 23.9583 11.9583Z" fill="#A6ADBA"/>
<path d="M12.5 6.75C12.2237 6.75 11.9588 6.85975 11.7634 7.0551C11.5681 7.25045 11.4583 7.5154 11.4583 7.79167V13C11.4584 13.2762 11.5682 13.5412 11.7635 13.7365L14.8885 16.8615C15.085 17.0512 15.3481 17.1562 15.6212 17.1538C15.8944 17.1515 16.1556 17.0419 16.3487 16.8488C16.5419 16.6556 16.6514 16.3944 16.6538 16.1213C16.6562 15.8481 16.5512 15.585 16.3614 15.3885L13.5416 12.5688V7.79167C13.5416 7.5154 13.4319 7.25045 13.2365 7.0551C13.0412 6.85975 12.7762 6.75 12.5 6.75Z" fill="#A6ADBA"/>
</g>
<defs>
<clipPath id="clip0_411_8969">
<rect width="25" height="25" fill="white" transform="translate(0 0.5)"/>
</clipPath>
</defs>
</svg>
